<svg width="48" height="48" viewBox="0 0 48 48" fill="none" xmlns="http://www.w3.org/2000/svg">
    <path d="M45 22H41V6C41 4.4087 40.3679 2.88258 39.2426 1.75736C38.1174 0.632141 36.5913 0 35 0L10 0C8.93913 0 7.92172 0.421427 7.17157 1.17157C6.42143 1.92172 6 2.93913 6 4V35C6 35.5304 5.78929 36.0391 5.41421 36.4142C5.03914 36.7893 4.53043 37 4 37C3.46957 37 2.96086 36.7893 2.58579 36.4142C2.21071 36.0391 2 35.5304 2 35V17C2 16.7348 1.89464 16.4804 1.70711 16.2929C1.51957 16.1054 1.26522 16 1 16C0.734784 16 0.48043 16.1054 0.292893 16.2929C0.105357 16.4804 0 16.7348 0 17L0 35C0 36.0609 0.421427 37.0783 1.17157 37.8284C1.92172 38.5786 2.93913 39 4 39H12V46C12 46.5304 12.2107 47.0391 12.5858 47.4142C12.9609 47.7893 13.4696 48 14 48H45C45.7957 48 46.5587 47.6839 47.1213 47.1213C47.6839 46.5587 48 45.7957 48 45V25C48 24.2044 47.6839 23.4413 47.1213 22.8787C46.5587 22.3161 45.7957 22 45 22ZM12 37H7.44C7.80355 36.396 7.99705 35.705 8 35V4C8 3.46957 8.21071 2.96086 8.58579 2.58579C8.96086 2.21071 9.46957 2 10 2C10.5304 2 11.0391 2.21071 11.4142 2.58579C11.7893 2.96086 12 3.46957 12 4V37ZM28.18 46H14V4C13.997 3.75845 13.9736 3.51759 13.93 3.28C13.9348 3.22344 13.9348 3.16656 13.93 3.11C13.8832 2.88447 13.8162 2.66359 13.73 2.45C13.6521 2.29305 13.5618 2.14257 13.46 2H35C36.0609 2 37.0783 2.42143 37.8284 3.17157C38.5786 3.92172 39 4.93913 39 6V22H31C30.2044 22 29.4413 22.3161 28.8787 22.8787C28.3161 23.4413 28 24.2044 28 25V45C28.0027 45.3411 28.0636 45.6793 28.18 46ZM46 45C46 45.2652 45.8946 45.5196 45.7071 45.7071C45.5196 45.8946 45.2652 46 45 46H31C30.7348 46 30.4804 45.8946 30.2929 45.7071C30.1054 45.5196 30 45.2652 30 45V25C30 24.7348 30.1054 24.4804 30.2929 24.2929C30.4804 24.1054 30.7348 24 31 24H45C45.2652 24 45.5196 24.1054 45.7071 24.2929C45.8946 24.4804 46 24.7348 46 25V45Z" fill="#2293D7"/>
    <path d="M43 28H34V27C34 26.7348 33.8946 26.4804 33.7071 26.2929C33.5196 26.1054 33.2652 26 33 26C32.7348 26 32.4804 26.1054 32.2929 26.2929C32.1054 26.4804 32 26.7348 32 27V29C32 29.2652 32.1054 29.5196 32.2929 29.7071C32.4804 29.8946 32.7348 30 33 30H43C43.2652 30 43.5196 29.8946 43.7071 29.7071C43.8946 29.5196 44 29.2652 44 29C44 28.7348 43.8946 28.4804 43.7071 28.2929C43.5196 28.1054 43.2652 28 43 28Z" fill="#2293D7"/>
    <path d="M43 35H42V34C42 33.7348 41.8946 33.4804 41.7071 33.2929C41.5196 33.1054 41.2652 33 41 33C40.7348 33 40.4804 33.1054 40.2929 33.2929C40.1054 33.4804 40 33.7348 40 34V35H39C38.7348 35 38.4804 35.1054 38.2929 35.2929C38.1054 35.4804 38 35.7348 38 36C38 36.2652 38.1054 36.5196 38.2929 36.7071C38.4804 36.8946 38.7348 37 39 37H40V38C40 38.2652 40.1054 38.5196 40.2929 38.7071C40.4804 38.8946 40.7348 39 41 39C41.2652 39 41.5196 38.8946 41.7071 38.7071C41.8946 38.5196 42 38.2652 42 38V37H43C43.2652 37 43.5196 36.8946 43.7071 36.7071C43.8946 36.5196 44 36.2652 44 36C44 35.7348 43.8946 35.4804 43.7071 35.2929C43.5196 35.1054 43.2652 35 43 35Z" fill="#2293D7"/>
    <path d="M33 37H35C35.2652 37 35.5196 36.8946 35.7071 36.7071C35.8946 36.5196 36 36.2652 36 36C36 35.7348 35.8946 35.4804 35.7071 35.2929C35.5196 35.1054 35.2652 35 35 35H33C32.7348 35 32.4804 35.1054 32.2929 35.2929C32.1054 35.4804 32 35.7348 32 36C32 36.2652 32.1054 36.5196 32.2929 36.7071C32.4804 36.8946 32.7348 37 33 37Z" fill="#2293D7"/>
    <path d="M43 41H41C40.7348 41 40.4804 41.1054 40.2929 41.2929C40.1054 41.4804 40 41.7348 40 42C40 42.2652 40.1054 42.5196 40.2929 42.7071C40.4804 42.8946 40.7348 43 41 43H43C43.2652 43 43.5196 42.8946 43.7071 42.7071C43.8946 42.5196 44 42.2652 44 42C44 41.7348 43.8946 41.4804 43.7071 41.2929C43.5196 41.1054 43.2652 41 43 41Z" fill="#2293D7"/>
    <path d="M37 41H33C32.7348 41 32.4804 41.1054 32.2929 41.2929C32.1054 41.4804 32 41.7348 32 42C32 42.2652 32.1054 42.5196 32.2929 42.7071C32.4804 42.8946 32.7348 43 33 43H37C37.2652 43 37.5196 42.8946 37.7071 42.7071C37.8946 42.5196 38 42.2652 38 42C38 41.7348 37.8946 41.4804 37.7071 41.2929C37.5196 41.1054 37.2652 41 37 41Z" fill="#2293D7"/>
    <path d="M32.7099 7.29C32.617 7.19627 32.5064 7.12188 32.3845 7.07111C32.2627 7.02034 32.132 6.9942 31.9999 6.9942C31.8679 6.9942 31.7372 7.02034 31.6154 7.07111C31.4935 7.12188 31.3829 7.19627 31.2899 7.29L21.2899 17.29C21.1962 17.383 21.1218 17.4936 21.071 17.6154C21.0203 17.7373 20.9941 17.868 20.9941 18C20.9941 18.132 21.0203 18.2627 21.071 18.3846C21.1218 18.5064 21.1962 18.617 21.2899 18.71C21.3829 18.8037 21.4935 18.8781 21.6154 18.9289C21.7372 18.9797 21.8679 19.0058 21.9999 19.0058C22.132 19.0058 22.2627 18.9797 22.3845 18.9289C22.5064 18.8781 22.617 18.8037 22.7099 18.71L32.7099 8.71C32.8037 8.61704 32.8781 8.50644 32.9288 8.38458C32.9796 8.26272 33.0057 8.13201 33.0057 8C33.0057 7.86799 32.9796 7.73728 32.9288 7.61542C32.8781 7.49356 32.8037 7.38296 32.7099 7.29Z" fill="#2293D7"/>
    <path d="M31 18C31.8284 18 32.5 17.3284 32.5 16.5C32.5 15.6716 31.8284 15 31 15C30.1716 15 29.5 15.6716 29.5 16.5C29.5 17.3284 30.1716 18 31 18Z" fill="#2293D7"/>
    <path d="M23.5 11C24.3284 11 25 10.3284 25 9.5C25 8.67157 24.3284 8 23.5 8C22.6716 8 22 8.67157 22 9.5C22 10.3284 22.6716 11 23.5 11Z" fill="#2293D7"/>
</svg>
