<svg width="39" height="56" viewBox="0 0 39 56" fill="none" xmlns="http://www.w3.org/2000/svg">
    <path d="M1.02976 49.9106C0.365942 50.5947 0 51.4887 0 52.4276C0 54.3973 1.59609 56 3.55758 56H35.4424C36.3943 56 37.2885 55.6293 37.9599 54.9556C38.6308 54.2824 39 53.3846 39 52.4276C39 50.458 37.4039 48.8552 35.4424 48.8552H34.8911L36.6293 38.1192C36.771 37.9314 36.8702 37.7088 36.8702 37.4551V36.6314L38.1712 28.5966C38.224 28.2729 38.132 27.942 37.9201 27.6916C37.7083 27.4417 37.3979 27.2973 37.0706 27.2973H35.9685C35.016 25.5542 33.4135 24.2828 31.4693 23.7627L30.6756 23.5498L29.7142 9.56828C29.345 4.20287 24.8606 0 19.5049 0C14.1486 0 9.66423 4.20287 9.29557 9.56828L8.33375 23.5499L7.5421 23.7627C5.59824 24.2828 3.99541 25.5545 3.04243 27.2973H1.94025C1.61352 27.2973 1.30258 27.4411 1.09075 27.6916C0.878913 27.9415 0.786883 28.2723 0.839161 28.5966L2.14119 36.6629V37.4551C2.14119 37.7039 2.23772 37.9219 2.3744 38.1078L4.10922 48.8552H3.55758C2.6057 48.8552 1.71208 49.226 1.02976 49.9106ZM30.8954 25.927C31.8004 26.1692 32.5998 26.645 33.2272 27.2973H26.4636C27.1914 26.7084 27.8469 26.0273 28.4174 25.2626L30.8954 25.927ZM11.5206 9.72249C11.8092 5.52673 15.3162 2.23978 19.5049 2.23978C23.6931 2.23978 27.2 5.52673 27.4892 9.72249L28.3978 22.9378C28.3915 22.9351 28.3836 22.9362 28.3772 22.9336L26.8766 22.5312C25.7844 22.2371 24.6588 22.0302 23.5259 21.871V19.8988C25.214 18.6528 26.3162 16.6511 26.3162 14.3907V9.62078C26.3162 9.00232 25.8168 8.50089 25.201 8.50089H21.315L19.6203 7.05017C19.2893 6.76528 18.8226 6.70239 18.4294 6.88503C18.0341 7.06822 17.7814 7.46521 17.7814 7.90212V8.50089H13.8083C13.1924 8.50089 12.6931 9.00232 12.6931 9.62078V14.3907C12.6931 16.6509 13.7954 18.6526 15.4834 19.8986V21.8701C14.3571 22.0284 13.2312 22.2353 12.1234 22.5312L10.6115 22.9377L11.5206 9.72249ZM19.5049 18.9906C16.9787 18.9906 14.9236 16.9269 14.9236 14.3907V10.7407H18.8966C19.304 10.7407 19.6601 10.5214 19.8545 10.1944L20.1802 10.4727C20.3822 10.6455 20.6387 10.7407 20.9039 10.7407H24.0857V14.3907C24.0857 16.9269 22.0306 18.9906 19.5049 18.9906ZM21.2954 20.9826V21.6652C20.226 21.6375 18.7865 21.6373 17.7139 21.6649V20.9824C18.2856 21.1393 18.8842 21.2304 19.5049 21.2304C20.1254 21.2304 20.7238 21.1394 21.2954 20.9826ZM16.7092 23.9541C17.6011 23.8617 21.4076 23.8617 22.2908 23.9541C23.562 24.0856 24.8211 24.321 26.0443 24.637C24.8469 25.9424 23.302 26.8671 21.5624 27.2973H17.1345C15.4111 26.8753 13.8751 25.9733 12.6784 24.7007L12.6996 24.695C14.019 24.3423 15.3685 24.093 16.7092 23.9541ZM8.11715 25.927L10.3003 25.3401C10.8596 26.0735 11.4992 26.7282 12.2065 27.2973H5.78427C6.41215 26.645 7.21155 26.1692 8.11715 25.927ZM3.251 29.5371H3.73565H35.2752H35.7593L32.6314 48.8552H6.36912L4.5013 37.2833C4.50082 37.28 4.50239 37.2768 4.50184 37.2735L4.35699 36.3888C4.35699 36.3887 4.35685 36.3886 4.35685 36.3885L3.251 29.5371ZM5.41996 51.095H33.58H35.4424C36.1743 51.095 36.7695 51.6927 36.7695 52.4276C36.7695 52.7913 36.6355 53.1177 36.3834 53.3714C36.1296 53.6257 35.8045 53.7602 35.4424 53.7602H3.55758C2.8257 53.7602 2.2305 53.1625 2.2305 52.4276C2.2305 51.977 2.44614 51.6599 2.61659 51.4843C2.86709 51.2334 3.20144 51.095 3.55758 51.095H5.41996Z" fill="#2293D7"/>
</svg>
