<svg width="38" height="45" viewBox="0 0 38 45" fill="none" xmlns="http://www.w3.org/2000/svg">
    <path d="M9 19.5H14C14.3978 19.5 14.7794 19.342 15.0607 19.0607C15.342 18.7794 15.5 18.3978 15.5 18C15.5 17.6022 15.342 17.2206 15.0607 16.9393C14.7794 16.658 14.3978 16.5 14 16.5H9C8.60218 16.5 8.22064 16.658 7.93934 16.9393C7.65804 17.2206 7.5 17.6022 7.5 18C7.5 18.3978 7.65804 18.7794 7.93934 19.0607C8.22064 19.342 8.60218 19.5 9 19.5Z" fill="#2293D7"/>
    <path d="M32.5 5H31.975C31.8503 3.63393 31.2196 2.36377 30.2067 1.43873C29.1938 0.513693 27.8717 0.000555088 26.5 0H10.44C10.2407 0.000161402 10.0434 0.0400391 9.85971 0.117303C9.67599 0.194568 9.50951 0.307669 9.37 0.45L0.43 9.575C0.154715 9.8552 0.000324162 10.2322 0 10.625V33.5C0.000555088 34.8717 0.513693 36.1938 1.43873 37.2067C2.36377 38.2196 3.63393 38.8503 5 38.975V39.5C5 40.9587 5.57946 42.3576 6.61091 43.3891C7.64236 44.4205 9.04131 45 10.5 45H32.5C33.9587 45 35.3576 44.4205 36.3891 43.3891C37.4205 42.3576 38 40.9587 38 39.5V10.5C38 9.04131 37.4205 7.64236 36.3891 6.61091C35.3576 5.57946 33.9587 5 32.5 5ZM9 5.11V9C9 9.13261 8.94732 9.25979 8.85355 9.35355C8.75979 9.44732 8.63261 9.5 8.5 9.5H4.7L9 5.11ZM3 33.5V12.5H8.5C9.42826 12.5 10.3185 12.1313 10.9749 11.4749C11.6313 10.8185 12 9.92826 12 9V3H26.5C27.163 3 27.7989 3.26339 28.2678 3.73223C28.7366 4.20107 29 4.83696 29 5.5V33.5C29 34.163 28.7366 34.7989 28.2678 35.2678C27.7989 35.7366 27.163 36 26.5 36H5.5C4.83696 36 4.20107 35.7366 3.73223 35.2678C3.26339 34.7989 3 34.163 3 33.5ZM35 39.5C35 39.8283 34.9353 40.1534 34.8097 40.4567C34.6841 40.76 34.4999 41.0356 34.2678 41.2678C34.0356 41.4999 33.76 41.6841 33.4567 41.8097C33.1534 41.9353 32.8283 42 32.5 42H10.5C9.83696 42 9.20107 41.7366 8.73223 41.2678C8.26339 40.7989 8 40.163 8 39.5V39H26.5C27.9587 39 29.3576 38.4205 30.3891 37.3891C31.4205 36.3576 32 34.9587 32 33.5V8H32.5C32.8283 8 33.1534 8.06466 33.4567 8.1903C33.76 8.31594 34.0356 8.50009 34.2678 8.73223C34.4999 8.96438 34.6841 9.23998 34.8097 9.54329C34.9353 9.84661 35 10.1717 35 10.5V39.5Z" fill="#2293D7"/>
    <path d="M9 25.5H23C23.3978 25.5 23.7794 25.342 24.0607 25.0607C24.342 24.7794 24.5 24.3978 24.5 24C24.5 23.6022 24.342 23.2206 24.0607 22.9393C23.7794 22.658 23.3978 22.5 23 22.5H9C8.60218 22.5 8.22064 22.658 7.93934 22.9393C7.65804 23.2206 7.5 23.6022 7.5 24C7.5 24.3978 7.65804 24.7794 7.93934 25.0607C8.22064 25.342 8.60218 25.5 9 25.5Z" fill="#2293D7"/>
    <path d="M9 31.5H23C23.3978 31.5 23.7794 31.342 24.0607 31.0607C24.342 30.7794 24.5 30.3978 24.5 30C24.5 29.6022 24.342 29.2206 24.0607 28.9393C23.7794 28.658 23.3978 28.5 23 28.5H9C8.60218 28.5 8.22064 28.658 7.93934 28.9393C7.65804 29.2206 7.5 29.6022 7.5 30C7.5 30.3978 7.65804 30.7794 7.93934 31.0607C8.22064 31.342 8.60218 31.5 9 31.5Z" fill="#2293D7"/>
</svg>
