<svg width="73" height="94" viewBox="0 0 73 94" fill="none" xmlns="http://www.w3.org/2000/svg">
    <path d="M55.9443 72.7775H16.4393C15.9833 72.7775 15.5459 72.9586 15.2234 73.2811C14.9009 73.6036 14.7197 74.041 14.7197 74.4971C14.7197 74.9531 14.9009 75.3905 15.2234 75.713C15.5459 76.0355 15.9833 76.2167 16.4393 76.2167H55.9443C56.4004 76.2167 56.8378 76.0355 57.1603 75.713C57.4828 75.3905 57.6639 74.9531 57.6639 74.4971C57.6639 74.041 57.4828 73.6036 57.1603 73.2811C56.8378 72.9586 56.4004 72.7775 55.9443 72.7775Z" fill="#2293D7"/>
    <path d="M55.9443 38.428H16.4393C15.9833 38.428 15.5459 38.6091 15.2234 38.9316C14.9009 39.2541 14.7197 39.6915 14.7197 40.1476C14.7197 40.6036 14.9009 41.041 15.2234 41.3635C15.5459 41.686 15.9833 41.8672 16.4393 41.8672H55.9443C56.4004 41.8672 56.8378 41.686 57.1603 41.3635C57.4828 41.041 57.6639 40.6036 57.6639 40.1476C57.6639 39.6915 57.4828 39.2541 57.1603 38.9316C56.8378 38.6091 56.4004 38.428 55.9443 38.428Z" fill="#2293D7"/>
    <path d="M16.4393 68.7225H37.4265C37.8826 68.7225 38.32 68.5414 38.6424 68.2189C38.9649 67.8964 39.1461 67.459 39.1461 67.0029C39.1461 66.5469 38.9649 66.1095 38.6424 65.787C38.32 65.4645 37.8826 65.2833 37.4265 65.2833H16.4393C15.9833 65.2833 15.5459 65.4645 15.2234 65.787C14.9009 66.1095 14.7197 66.5469 14.7197 67.0029C14.7197 67.459 14.9009 67.8964 15.2234 68.2189C15.5459 68.5414 15.9833 68.7225 16.4393 68.7225Z" fill="#2293D7"/>
    <path d="M16.4393 34.373H37.4265C37.8826 34.373 38.32 34.1918 38.6424 33.8693C38.9649 33.5469 39.1461 33.1095 39.1461 32.6534C39.1461 32.1973 38.9649 31.7599 38.6424 31.4375C38.32 31.115 37.8826 30.9338 37.4265 30.9338H16.4393C15.9833 30.9338 15.5459 31.115 15.2234 31.4375C14.9009 31.7599 14.7197 32.1973 14.7197 32.6534C14.7197 33.1095 14.9009 33.5469 15.2234 33.8693C15.5459 34.1918 15.9833 34.373 16.4393 34.373Z" fill="#2293D7"/>
    <path d="M55.9443 80.2716H16.4393C15.9833 80.2716 15.5459 80.4528 15.2234 80.7753C14.9009 81.0978 14.7197 81.5351 14.7197 81.9912C14.7197 82.4473 14.9009 82.8847 15.2234 83.2072C15.5459 83.5296 15.9833 83.7108 16.4393 83.7108H55.9443C56.4004 83.7108 56.8378 83.5296 57.1603 83.2072C57.4828 82.8847 57.6639 82.4473 57.6639 81.9912C57.6639 81.5351 57.4828 81.0978 57.1603 80.7753C56.8378 80.4528 56.4004 80.2716 55.9443 80.2716Z" fill="#2293D7"/>
    <path d="M55.9443 45.9221H16.4393C15.9833 45.9221 15.5459 46.1033 15.2234 46.4258C14.9009 46.7483 14.7197 47.1857 14.7197 47.6417C14.7197 48.0978 14.9009 48.5352 15.2234 48.8577C15.5459 49.1802 15.9833 49.3613 16.4393 49.3613H55.9443C56.4004 49.3613 56.8378 49.1802 57.1603 48.8577C57.4828 48.5352 57.6639 48.0978 57.6639 47.6417C57.6639 47.1857 57.4828 46.7483 57.1603 46.4258C56.8378 46.1033 56.4004 45.9221 55.9443 45.9221Z" fill="#2293D7"/>
    <path d="M1.7196 93.9663H70.6642C71.1203 93.9663 71.5577 93.7851 71.8801 93.4626C72.2026 93.1401 72.3838 92.7028 72.3838 92.2467V20.0624C72.388 19.8703 72.3537 19.6793 72.2829 19.5006C72.2715 19.4674 72.2646 19.433 72.252 19.4009C72.2156 19.3178 72.1726 19.2376 72.1236 19.1613C72.1121 19.1441 72.1052 19.1235 72.0938 19.1063C72.0306 19.012 71.9584 18.9241 71.8782 18.8437L53.5358 0.501315C53.4553 0.422729 53.3674 0.352089 53.2733 0.290377C53.2561 0.278913 53.2355 0.270888 53.2183 0.260571C53.1419 0.211516 53.0618 0.168583 52.9787 0.132174C52.9466 0.118417 52.9122 0.112685 52.8789 0.101221C52.7003 0.0304788 52.5093 -0.00382135 52.3172 0.000337635H1.7196C1.26354 0.000337635 0.826147 0.181509 0.503659 0.503997C0.181171 0.826485 0 1.26387 0 1.71994V92.2467C0 92.7028 0.181171 93.1401 0.503659 93.4626C0.826147 93.7851 1.26354 93.9663 1.7196 93.9663ZM54.0414 5.87106L66.5131 18.3428H54.0414V5.87106ZM3.4392 3.43954H50.6022V20.0624C50.6022 20.5184 50.7833 20.9558 51.1058 21.2783C51.4283 21.6008 51.8657 21.782 52.3218 21.782H68.9446V90.5271H3.4392V3.43954Z" fill="#2293D7"/>
</svg>
