<svg width="79" height="102" viewBox="0 0 79 102" fill="none" xmlns="http://www.w3.org/2000/svg">
    <path d="M77.8338 15.174L40.8355 0.12639C40.3803 -0.0421299 39.8799 -0.0421299 39.4248 0.12639L1.185 15.174C0.835021 15.3134 0.534957 15.5547 0.323677 15.8665C0.112397 16.1784 -0.000363801 16.5466 8.8178e-07 16.9233V62.0661C8.8178e-07 85.6345 37.224 100.795 38.804 101.434C39.2509 101.612 39.749 101.612 40.1959 101.434C41.7759 100.795 79 85.6345 79 62.0661V16.9233C79.0019 16.5487 78.8919 16.1822 78.6841 15.8705C78.4763 15.5589 78.1803 15.3163 77.8338 15.174ZM75.2381 62.0661C75.2381 81.4588 44.5597 95.4718 39.5 97.6537C34.4402 95.4718 3.7619 81.4776 3.7619 62.0661V18.2023L40.1207 3.9071L75.2381 18.1835V62.0661ZM35.7381 55.9154L57.1621 38.0464L59.5697 40.9431L36.9983 59.7526C36.6451 60.0457 36.1969 60.1996 35.7381 60.1852C35.3311 60.1852 34.9351 60.0532 34.6095 59.809L19.5619 48.5233L21.819 45.5138L35.7381 55.9154Z" fill="#2293D7"/>
</svg>
