<svg width="104" height="106" viewBox="0 0 104 106" fill="none" xmlns="http://www.w3.org/2000/svg">
    <path d="M85.8823 86.3999L86.4783 87.4747C86.3591 87.415 86.2995 87.415 86.1803 87.4747C86.0611 87.5344 85.9419 87.5941 85.8227 87.7135L85.4651 88.0718L87.9087 90.7587C88.0279 90.9379 88.1471 91.0573 88.3259 91.117C88.4451 91.1767 88.5642 91.1767 88.743 91.1767L87.1935 92.55C87.1935 92.4306 87.1935 92.2515 87.1339 92.1321C87.0743 92.0126 87.0147 91.8335 86.8359 91.7141L84.3923 89.0271L84.0347 89.3854C83.9155 89.5048 83.7963 89.6242 83.7367 89.8034C83.6771 89.9228 83.6175 90.1019 83.6175 90.281L83.0216 89.1466C83.0216 89.1466 83.0812 89.1466 83.0812 89.0868L83.1408 89.0271L85.8227 86.6387L85.8823 86.579C85.8227 86.4596 85.8823 86.3999 85.8823 86.3999ZM82.4852 90.5199L84.5711 93.5054C84.6903 93.6845 84.8095 93.8039 84.9287 93.8636C85.0479 93.9233 85.1671 93.9831 85.3459 93.9831L83.6175 95.1772C83.6771 95.0578 83.6771 94.8787 83.6175 94.7593C83.5579 94.6399 83.4983 94.4607 83.3792 94.2816L81.2336 91.2364L80.3992 91.8335L80.7568 92.3709C81.5316 93.5054 82.0084 94.401 82.1872 95.1175C82.366 95.8341 82.1872 96.3117 81.77 96.67C81.7104 96.7297 81.6508 96.7297 81.5912 96.7894C81.5316 96.7894 81.472 96.8491 81.4124 96.8491L80.6972 95.9535C80.7568 95.9535 80.8164 95.9535 80.876 95.8938C80.9356 95.8938 80.9952 95.8341 81.0548 95.8341C81.2932 95.6549 81.3528 95.3564 81.174 94.8787C80.9952 94.401 80.6972 93.8039 80.1608 93.0277C79.8032 92.55 79.5648 92.2515 79.386 92.1321C79.2072 92.0126 79.0284 91.9529 78.8496 92.0126L82.3064 89.5645C82.2468 89.6839 82.2468 89.8631 82.3064 89.9825C82.3064 90.2213 82.366 90.4005 82.4852 90.5199ZM76.1677 97.1477L77.1213 96.6103L75.8697 95.4758L76.1677 97.1477ZM74.4393 94.7593L76.1081 93.8039L79.6244 96.8491C79.8032 97.0283 79.982 97.1477 80.1608 97.2074C80.3396 97.2671 80.5184 97.3268 80.6376 97.3268L78.5516 98.521C78.6112 98.4016 78.6708 98.2822 78.6708 98.2225C78.6708 98.103 78.6708 97.9836 78.6112 97.9239C78.6112 97.9239 78.5516 97.8642 78.492 97.8045C78.4324 97.7448 78.3728 97.6851 78.3728 97.6851L77.7769 97.1477L76.4061 97.9239L76.5253 98.7001C76.5253 98.8196 76.5849 98.8793 76.5849 98.939C76.5849 98.9987 76.6445 99.0584 76.6445 99.0584C76.7041 99.1181 76.7637 99.2375 76.8233 99.2375C76.8829 99.2972 77.0021 99.2972 77.1213 99.2972L75.6909 100.073C75.7505 99.8943 75.7505 99.7152 75.7505 99.5361C75.7505 99.3569 75.7505 99.1778 75.6909 98.9987L75.0353 95.2967C75.0353 95.237 74.9757 95.1772 74.9757 95.0578C74.9757 94.9981 74.9161 94.9384 74.9161 94.8787C74.8565 94.819 74.7969 94.7593 74.7373 94.6996C74.6181 94.819 74.5585 94.7593 74.4393 94.7593ZM72.413 95.8341L72.8898 96.8491C72.6514 96.7894 72.413 96.7894 72.2342 96.7894C71.9958 96.7894 71.7574 96.8491 71.5786 96.9088C71.1614 97.088 70.8634 97.3865 70.7442 97.7448C70.625 98.103 70.6846 98.5807 70.8634 99.1181C71.1018 99.7749 71.4594 100.193 71.8766 100.432C72.2938 100.671 72.7705 100.671 73.3069 100.491C73.4857 100.432 73.7241 100.253 73.9625 100.073C74.2009 99.8943 74.4393 99.6555 74.6777 99.3569L74.7373 100.491C74.5585 100.671 74.3201 100.85 74.0817 100.969C73.8433 101.089 73.6049 101.268 73.3069 101.387C72.413 101.745 71.6382 101.745 70.9826 101.447C70.327 101.148 69.7906 100.611 69.4926 99.8346C69.1946 99.0584 69.1946 98.3419 69.4926 97.6851C69.7906 96.9685 70.327 96.4909 71.1018 96.1923C71.2806 96.1326 71.4594 96.0729 71.6978 96.0132C71.9362 95.9535 72.1746 95.8938 72.413 95.8341ZM65.4399 98.3419L67.4663 97.7448C67.4067 97.8642 67.347 97.9836 67.2875 98.1627C67.2875 98.2822 67.2875 98.4613 67.3471 98.6404L68.3602 102.163C68.4198 102.342 68.4794 102.522 68.539 102.641C68.5986 102.76 68.7178 102.82 68.8966 102.88L66.8703 103.477C66.9299 103.358 66.9895 103.238 66.9895 103.119C66.9895 102.999 66.9895 102.82 66.9299 102.581L66.4531 101.029L65.0823 101.447L65.5591 102.999C65.6187 103.178 65.6783 103.358 65.7975 103.477C65.8571 103.596 65.9763 103.656 66.0955 103.716L64.0691 104.313C64.1287 104.193 64.1883 104.074 64.1883 103.955C64.1883 103.835 64.1883 103.656 64.1287 103.417L63.1155 99.8943C63.0559 99.7152 62.9963 99.5361 62.8771 99.4166C62.7579 99.2972 62.6983 99.2375 62.5791 99.1778L64.6055 98.5807C64.5459 98.7001 64.4863 98.8195 64.4863 98.939C64.4863 99.0584 64.4863 99.2375 64.5459 99.4166L64.9035 100.611L66.2743 100.193L65.9167 98.939C65.8571 98.7598 65.7975 98.5807 65.6783 98.4613C65.6783 98.521 65.5591 98.4016 65.4399 98.3419ZM57.8708 102.402C57.9304 103.059 58.1688 103.537 58.4668 103.895C58.7648 104.253 59.182 104.373 59.6588 104.313C60.0164 104.253 60.3144 104.074 60.5528 103.716C60.7912 103.357 60.8508 102.94 60.7316 102.402C60.6124 101.745 60.4336 101.208 60.1356 100.85C59.8376 100.491 59.4204 100.312 59.0628 100.372C58.6456 100.432 58.288 100.611 58.1092 101.029C57.8708 101.387 57.8112 101.865 57.8708 102.402ZM56.4405 102.82C56.3213 102.044 56.5001 101.327 56.9768 100.73C57.4536 100.073 58.1092 99.7152 59.0628 99.5958C59.9568 99.4764 60.672 99.6555 61.268 100.073C61.864 100.551 62.2215 101.148 62.3407 101.984C62.4599 102.82 62.2811 103.477 61.8044 104.134C61.3276 104.731 60.672 105.089 59.778 105.209C58.9436 105.328 58.2284 105.149 57.6324 104.731C56.8577 104.253 56.5001 103.656 56.4405 102.82ZM55.4273 100.073L53.6989 102.283L55.3677 104.85C55.4273 104.91 55.4869 105.029 55.5465 105.089C55.6657 105.209 55.7253 105.268 55.8445 105.388L54.7121 105.447C54.4141 105.447 54.1161 105.388 53.9373 105.268C53.7585 105.149 53.5797 104.97 53.4009 104.671L52.4473 102.999V104.611C52.4473 104.791 52.5069 104.97 52.5069 105.089C52.5665 105.209 52.6261 105.328 52.7453 105.388L50.6594 105.447C50.7786 105.388 50.8382 105.268 50.8978 105.149C50.9574 105.029 50.9574 104.85 50.9574 104.611L50.8978 100.909C50.8978 100.73 50.8382 100.551 50.8382 100.432C50.7786 100.312 50.719 100.193 50.5998 100.133L52.6857 100.073C52.5665 100.193 52.5069 100.253 52.4473 100.432C52.3877 100.551 52.3877 100.73 52.3877 100.909V102.522L53.5797 100.85C53.6393 100.79 53.6393 100.73 53.6989 100.671C53.6989 100.611 53.7585 100.551 53.7585 100.491C53.7585 100.432 53.7585 100.372 53.6989 100.312C53.6393 100.253 53.5797 100.193 53.4605 100.073H55.4273ZM46.1299 99.7749L46.0107 100.85C45.8319 100.671 45.6531 100.551 45.4743 100.432C45.2955 100.312 45.0571 100.253 44.8187 100.193C44.3419 100.133 43.9843 100.193 43.6863 100.491C43.3883 100.73 43.1499 101.148 43.0903 101.745C42.9711 102.462 43.0307 102.999 43.2691 103.417C43.5075 103.835 43.9247 104.074 44.4611 104.193C44.6399 104.253 44.9379 104.253 45.2359 104.193C45.5339 104.134 45.8915 104.074 46.1895 103.955L45.6531 104.97C45.4147 105.029 45.1167 105.029 44.8783 105.029C44.5803 105.029 44.2823 105.029 43.9843 104.97C43.0307 104.791 42.3751 104.432 41.9579 103.775C41.5407 103.178 41.4215 102.462 41.5407 101.626C41.6599 100.79 42.0771 100.193 42.6731 99.7749C43.2691 99.3569 44.0439 99.1778 44.8783 99.3569C45.0571 99.4166 45.2955 99.4167 45.4743 99.4764C45.7127 99.5958 45.8915 99.6555 46.1299 99.7749ZM37.8456 97.8642L40.7064 98.7001C40.766 98.7001 40.766 98.7001 40.8256 98.7001C40.8852 98.7001 40.8852 98.7001 40.9448 98.7001L40.6468 99.7749C40.5872 99.6555 40.5276 99.5361 40.468 99.4764C40.4084 99.4167 40.2892 99.2972 40.1104 99.2972L39.4548 99.1181L39.0972 100.372L40.17 100.671L39.872 101.686C39.8124 101.566 39.7528 101.506 39.6932 101.447C39.6336 101.387 39.5144 101.327 39.3952 101.268L38.8588 101.089L38.4416 102.522C38.382 102.641 38.4416 102.701 38.5012 102.76C38.5608 102.82 38.7396 102.88 38.9184 102.94L39.5144 103.119C39.6336 103.178 39.8124 103.178 39.9912 103.178C40.17 103.178 40.2892 103.119 40.468 102.999L39.872 104.014L36.4748 103.059C36.594 102.999 36.7132 102.94 36.7728 102.82C36.8324 102.701 36.9516 102.581 37.0112 102.342L38.0244 98.8196C38.084 98.6404 38.084 98.4613 38.084 98.3419C37.9648 98.103 37.9052 97.9836 37.8456 97.8642ZM37.3688 97.6851L36.7132 98.7001C36.7132 98.5807 36.6536 98.521 36.594 98.4016C36.5344 98.3419 36.4152 98.2224 36.2364 98.1627L35.7597 97.9836L34.4485 101.387C34.3889 101.566 34.3293 101.745 34.3293 101.865C34.3293 101.984 34.3889 102.163 34.4485 102.283L32.4817 101.506C32.6009 101.447 32.7201 101.387 32.8393 101.268C32.9585 101.148 33.0181 101.029 33.0777 100.85L34.3889 97.4462L33.9121 97.2671C33.7333 97.2074 33.5545 97.1477 33.4353 97.1477C33.2565 97.1477 33.1373 97.2074 32.9585 97.2671L33.6737 96.1923L33.7333 96.252C33.7333 96.252 33.7929 96.252 33.8525 96.3117L37.19 97.6254C37.2496 97.6254 37.2496 97.6254 37.3092 97.6851C37.3092 97.6851 37.3092 97.6851 37.3688 97.6851ZM29.3826 94.1025L31.5877 95.237C32.0049 95.4758 32.3029 95.7743 32.4221 96.1326C32.5413 96.4909 32.5413 96.9088 32.3625 97.2671C32.1241 97.7448 31.7069 98.0433 31.1705 98.103C30.6341 98.1627 30.0978 97.9836 29.621 97.6851C29.919 97.6851 30.1574 97.6254 30.3362 97.5059C30.5746 97.3865 30.6937 97.2074 30.8725 96.9088C30.9917 96.6103 31.0513 96.3714 30.9917 96.1326C30.9321 95.8938 30.8129 95.7146 30.6341 95.6549L30.5745 95.5952L28.8462 98.8793C28.727 99.0584 28.6674 99.2375 28.6674 99.3569C28.6674 99.4764 28.6674 99.6555 28.727 99.7749L26.8794 98.8196C26.9986 98.8196 27.1178 98.7598 27.237 98.6404C27.3562 98.521 27.4158 98.4016 27.535 98.2225L29.2038 94.9384C29.323 94.7593 29.323 94.5802 29.3826 94.4607C29.4422 94.401 29.3826 94.2219 29.3826 94.1025ZM23.3631 93.3262C23.0055 93.8636 22.8863 94.401 22.8863 94.8787C22.8863 95.3564 23.1247 95.7146 23.4823 95.9535C23.7803 96.1326 24.1379 96.1923 24.5551 96.0729C24.9127 95.9535 25.2703 95.6549 25.5682 95.1772C25.9258 94.5801 26.1046 94.1025 26.1046 93.5651C26.1046 93.0874 25.9258 92.7291 25.5682 92.4903C25.2107 92.2515 24.7935 92.1918 24.4359 92.3709C23.9591 92.55 23.6611 92.8486 23.3631 93.3262ZM21.9327 92.6694C22.3499 92.0126 22.9459 91.5947 23.6611 91.4155C24.4359 91.2364 25.2107 91.3558 25.9854 91.8932C26.7602 92.3709 27.1774 92.968 27.3562 93.6845C27.535 94.401 27.3562 95.1175 26.939 95.7743C26.5218 96.4312 25.9258 96.9088 25.1511 97.0283C24.3763 97.2074 23.6611 97.0283 22.8863 96.5506C22.1711 96.0729 21.6943 95.5355 21.5155 94.819C21.3367 94.1025 21.5155 93.386 21.9327 92.6694ZM21.2771 88.3703L22.8863 89.7437C22.7671 89.7437 22.5883 89.7437 22.4691 89.8631C22.3499 89.9228 22.2307 90.0422 22.1115 90.2213L19.7276 93.0277C19.6084 93.2068 19.4892 93.3262 19.4296 93.4457C19.37 93.5651 19.37 93.6845 19.4296 93.8636L17.8204 92.4903C17.9396 92.4903 18.1184 92.4903 18.2376 92.3709C18.3568 92.3112 18.476 92.1918 18.5952 92.0126L19.668 90.7587L18.5952 89.8034L17.5224 91.0573C17.4032 91.2364 17.284 91.3558 17.2244 91.4752C17.1648 91.5947 17.1648 91.7141 17.2244 91.8932L15.6152 90.5199C15.7344 90.5199 15.9132 90.5199 16.0324 90.4005C16.1516 90.3407 16.2708 90.2213 16.4496 90.0422L18.8336 87.2358C18.9528 87.0567 19.072 86.9373 19.072 86.8179C19.1316 86.6984 19.1316 86.5193 19.072 86.3999L20.6811 87.7732C20.5619 87.7732 20.3831 87.7732 20.2639 87.8926C20.1447 87.9524 20.0256 88.0718 19.9064 88.2509L19.072 89.2063L20.1447 90.1616L20.9791 89.2063C21.0983 89.0271 21.2175 88.9077 21.2175 88.7883C21.2771 88.6689 21.2771 88.4897 21.2771 88.3703Z" fill="#037AA6"/>
    <path d="M92.9742 20.3611C92.855 20.1819 92.6762 20.0625 92.4974 20.0028C92.3186 19.9431 92.0803 19.8834 91.9015 19.9431C91.7227 19.9431 91.4843 20.0625 91.3651 20.1819C91.1863 20.3013 91.0671 20.4805 91.0075 20.6596C90.9479 20.8387 90.8883 21.0776 90.9479 21.2567C91.0075 21.4955 91.0671 21.6747 91.1863 21.7941C91.3055 21.9135 91.4247 22.0329 91.5439 22.0926C91.6631 22.1523 91.8419 22.2121 91.9611 22.2121C92.1399 22.2121 92.2591 22.2121 92.4379 22.1523C92.6166 22.0926 92.7358 22.0329 92.855 21.9732C93.0338 21.8538 93.153 21.6747 93.2126 21.4955C93.2722 21.3164 93.3318 21.0776 93.2722 20.8984C93.2126 20.7193 93.0934 20.5402 92.9742 20.3611ZM93.153 20.1819C93.3318 20.4208 93.451 20.6596 93.451 20.8984C93.5106 21.1373 93.451 21.4358 93.3914 21.6747C93.2722 21.9135 93.153 22.0926 92.9742 22.2718C92.7954 22.4509 92.557 22.5106 92.259 22.5703C92.0207 22.63 91.7823 22.5703 91.5439 22.4509C91.3055 22.3315 91.1267 22.2121 90.9479 21.9732C90.7691 21.7941 90.7095 21.5552 90.6499 21.2567C90.5903 21.0179 90.6499 20.779 90.7095 20.5402C90.8287 20.3013 90.9479 20.1222 91.1267 19.9431C91.3055 19.764 91.5439 19.7042 91.7823 19.6445C92.0207 19.5848 92.259 19.6445 92.4974 19.7042C92.7954 19.8237 93.0338 19.9431 93.153 20.1819ZM89.9347 18.51L90.2327 18.8683C90.3519 18.9877 90.4115 19.0474 90.4711 19.1071C90.5307 19.1669 90.5903 19.2266 90.7095 19.2266C90.7691 19.2266 90.8883 19.2266 90.9479 19.2266C91.0075 19.2266 91.1267 19.1669 91.1863 19.1071C91.2459 19.0474 91.3055 18.928 91.3651 18.8086C91.3651 18.6892 91.3651 18.5698 91.3651 18.51C91.3055 18.3906 91.2459 18.2712 91.1267 18.1518L91.0671 18.0921L91.0075 18.0324V17.9727L90.7691 17.6741L89.9347 18.51ZM88.6831 19.1669L90.7691 17.3756L91.2459 17.9129C91.3651 18.0324 91.4843 18.1518 91.4843 18.2712C91.5439 18.3906 91.6035 18.4503 91.6035 18.5698C91.6035 18.6295 91.6035 18.7489 91.6035 18.8086C91.6035 18.8683 91.5439 18.9877 91.4843 19.0474C91.4247 19.1071 91.3651 19.1669 91.3055 19.2863C91.1863 19.346 91.0671 19.4057 90.9479 19.4654C90.8287 19.5251 90.7095 19.5251 90.5903 19.4654C90.5307 19.4654 90.4711 19.4057 90.4115 19.4057C90.3519 19.346 90.2923 19.346 90.2327 19.2863C90.1731 19.2266 90.1135 19.1669 89.9943 19.0474L89.6367 18.6295L88.8023 19.346L88.6831 19.1669ZM86.9548 17.3159L88.9811 15.4051L90.3519 16.8382L88.3255 18.7489L88.1467 18.5698L89.9943 16.8382L88.9811 15.8231L87.1335 17.5547L86.9548 17.3159ZM87.3123 14.1512C87.1335 14.0318 86.9548 13.9124 86.776 13.8527C86.5972 13.793 86.3588 13.793 86.18 13.8527C86.0012 13.9124 85.8224 14.0318 85.6436 14.1512C85.5244 14.3304 85.4052 14.4498 85.3456 14.6886C85.286 14.8677 85.286 15.1066 85.3456 15.2857C85.4052 15.4648 85.5244 15.644 85.6436 15.8231C85.7628 15.9425 85.882 16.0022 86.0608 16.0619C86.18 16.1217 86.3588 16.1217 86.5376 16.1217C86.7164 16.1217 86.8355 16.0619 86.9548 16.0022C87.0739 15.9425 87.1931 15.8231 87.3123 15.7634C87.4315 15.5843 87.5507 15.4648 87.6103 15.226C87.6699 15.0469 87.6699 14.808 87.6103 14.6289C87.6103 14.4498 87.4911 14.2706 87.3123 14.1512ZM87.4911 13.9124C87.6699 14.0915 87.8487 14.3304 87.9083 14.5692C87.9679 14.808 88.0275 15.0469 87.9679 15.3454C87.9083 15.5843 87.7891 15.8231 87.6103 16.0022C87.4315 16.1814 87.1931 16.3008 86.9548 16.3605C86.7164 16.4202 86.478 16.4202 86.18 16.3605C85.9416 16.3008 85.7032 16.1814 85.5244 16.0022C85.3456 15.8231 85.2264 15.5843 85.1072 15.3454C85.0476 15.1066 85.0476 14.8677 85.0476 14.5692C85.1072 14.3304 85.2264 14.0915 85.4052 13.9124C85.584 13.7333 85.7628 13.6138 86.0608 13.5541C86.2992 13.4944 86.5376 13.4944 86.8355 13.5541C87.0739 13.6138 87.3123 13.7333 87.4911 13.9124ZM85.5244 13.1362L85.286 12.957C85.286 12.8376 85.286 12.7182 85.2264 12.5988C85.1668 12.4794 85.1668 12.3599 85.0476 12.2405C84.988 12.1211 84.8688 12.0017 84.8092 11.942C84.6304 11.8225 84.4516 11.7628 84.2728 11.7031C84.094 11.7031 83.8556 11.7031 83.6768 11.7628C83.498 11.8225 83.3192 11.942 83.2 12.1211C83.0808 12.3002 83.0212 12.4794 82.9616 12.6585C82.9616 12.8376 82.9616 13.0765 83.0212 13.2556C83.0808 13.4347 83.2 13.6138 83.3788 13.7333C83.498 13.8527 83.6768 13.9124 83.8556 13.9721C83.9748 13.9721 84.0344 13.9721 84.094 13.9721C84.1536 13.9721 84.2728 13.9721 84.392 13.9124L84.6304 14.0915C84.5112 14.1512 84.4516 14.1512 84.392 14.1512C84.3324 14.1512 84.2728 14.1512 84.1536 14.2109C83.796 14.2109 83.4384 14.1512 83.1404 13.9124C82.9616 13.7333 82.7828 13.5541 82.6636 13.3153C82.5444 13.0765 82.5444 12.8376 82.604 12.5988C82.6636 12.3599 82.7232 12.1211 82.902 11.8823C83.0808 11.7031 83.2596 11.524 83.498 11.4643C83.7364 11.3449 83.9748 11.3449 84.2132 11.4046C84.4516 11.4643 84.69 11.524 84.9284 11.7031C85.1668 11.8823 85.286 12.1211 85.4052 12.3599C85.4648 12.5391 85.4648 12.6585 85.4648 12.8376C85.584 12.957 85.584 13.0167 85.5244 13.1362ZM78.9089 10.7478L80.3989 8.41909L81.6505 9.25502L81.5313 9.49386L80.5181 8.83706L79.9817 9.67299L80.9949 10.3298L80.8757 10.5686L79.8625 9.91183L79.3261 10.8075L80.3393 11.4643L80.2201 11.7031L78.9089 10.7478ZM78.5513 7.52344C78.3725 7.40402 78.1937 7.34431 77.9553 7.34431C77.7169 7.34431 77.5381 7.40402 77.3593 7.52344C77.1805 7.64286 77.0613 7.76228 76.9421 7.94141C76.8229 8.12054 76.7633 8.29967 76.8229 8.53851C76.8229 8.71764 76.8825 8.95647 77.0017 9.1356C77.1209 9.31473 77.2401 9.43415 77.4189 9.55357C77.5381 9.61328 77.7169 9.67299 77.8361 9.7327C78.0149 9.7327 78.1341 9.7327 78.3129 9.7327C78.4321 9.67299 78.6109 9.61328 78.7301 9.55357C78.8493 9.43415 78.9685 9.31473 79.0281 9.19531C79.1473 9.01618 79.2069 8.83705 79.1473 8.59822C79.1473 8.35938 79.0877 8.18025 78.9685 8.00112C78.8493 7.76228 78.7301 7.64286 78.5513 7.52344ZM78.6705 7.2846C78.9089 7.40402 79.0877 7.58315 79.2069 7.82199C79.3261 8.06083 79.3857 8.29967 79.4453 8.53851C79.4453 8.77734 79.3857 9.01618 79.2665 9.25502C79.1473 9.49386 78.9685 9.67299 78.7301 9.79241C78.4917 9.91183 78.2533 9.97154 78.0149 9.97154C77.7765 9.97154 77.5381 9.91183 77.2997 9.79241C77.0613 9.67299 76.8825 9.49386 76.7633 9.25502C76.6441 9.01618 76.5845 8.77734 76.5845 8.53851C76.5845 8.29967 76.6441 8.06083 76.7633 7.82199C76.8825 7.58315 77.0613 7.40402 77.2997 7.2846C77.5381 7.16518 77.7765 7.10547 78.0149 7.10547C78.1937 7.10547 78.4321 7.16518 78.6705 7.2846ZM75.631 5.67243L74.3794 8.12054L74.141 8.00112L75.3926 5.55301L75.631 5.67243ZM75.035 6.86663L76.7037 6.20982L77.0017 6.38895L75.333 7.04576L75.8098 8.89676L75.5118 8.71764L75.035 6.86663ZM74.5582 5.91127L74.2602 5.79185C74.2602 5.67243 74.2006 5.55301 74.141 5.4933C74.0814 5.37388 74.0218 5.25446 73.9026 5.19476C73.7834 5.07534 73.7238 5.01563 73.6046 4.95592C73.4258 4.89621 73.247 4.8365 73.0086 4.8365C72.8298 4.8365 72.5914 4.95592 72.4722 5.07534C72.2934 5.19476 72.1742 5.37388 72.1146 5.55301C72.055 5.73214 71.9954 5.91127 71.9954 6.15011C71.9954 6.32924 72.1146 6.56808 72.2338 6.74721C72.353 6.92634 72.5318 7.04576 72.7106 7.10547C72.8894 7.16518 73.0682 7.22489 73.247 7.22489C73.3662 7.22489 73.4258 7.22489 73.4854 7.16518C73.545 7.16518 73.6642 7.10547 73.7834 7.04576L74.0814 7.16518C73.9622 7.22489 73.9026 7.2846 73.843 7.2846C73.7834 7.2846 73.7238 7.34431 73.6046 7.34431C73.247 7.46373 72.8894 7.40402 72.5914 7.2846C72.353 7.16518 72.1742 7.04576 71.9954 6.80692C71.8166 6.62779 71.757 6.38895 71.757 6.0904C71.757 5.85156 71.757 5.61272 71.8762 5.37388C71.9954 5.13505 72.1146 4.95592 72.353 4.77679C72.5318 4.65737 72.7702 4.53795 73.0682 4.53795C73.3066 4.53795 73.545 4.53795 73.7834 4.65737C74.0218 4.77679 74.2602 4.95592 74.439 5.19476C74.5582 5.31417 74.6178 5.4933 74.6178 5.61272C74.5582 5.73214 74.5582 5.85156 74.5582 5.91127ZM69.4923 5.97098L70.5055 3.40346L71.9358 3.94085L71.8166 4.17969L70.6843 3.70201L70.3267 4.65737L71.459 5.07534L71.3398 5.31417L70.2075 4.89621L69.8499 5.85156L70.9823 6.32924L70.9227 6.56808L69.4923 5.97098ZM68.9559 5.79185L68.7175 5.73214L69.1347 4.47824C69.0155 4.59766 68.8963 4.65737 68.7771 4.71708C68.6579 4.71708 68.4791 4.71708 68.3003 4.65737C68.0619 4.59766 67.8831 4.41853 67.8235 4.2394C67.7639 4.11998 67.7043 4.00056 67.7043 3.88114C67.7043 3.76172 67.7639 3.58259 67.8235 3.40346L68.0619 2.62723L68.3003 2.68694L68.0023 3.52288C67.9427 3.6423 67.9427 3.76172 67.9427 3.88114C67.9427 4.00056 68.0023 4.11998 68.0619 4.17969C68.1215 4.2394 68.2407 4.29911 68.3599 4.35882C68.5387 4.41853 68.7175 4.41853 68.8367 4.35882C68.9559 4.29911 69.0155 4.2394 69.0751 4.17969C69.1347 4.06027 69.1943 3.94085 69.2539 3.76172L69.4923 3.0452L69.7307 3.10491L68.9559 5.79185ZM66.6315 5.01563L66.3931 4.95592L67.0487 2.68694L66.9891 2.74665L64.9032 4.53795L64.6648 4.47824L65.4396 1.79129L65.678 1.851L65.0224 4.11998L65.082 4.06027L67.1679 2.26897L67.4063 2.32868L66.6315 5.01563ZM63.89 4.00056L63.592 1.67188L62.2808 3.6423L63.89 4.00056ZM61.804 3.52288L61.9828 3.58259L63.4728 1.31362L63.7708 1.37333L64.1284 4.06027L64.3072 4.11998L64.1284 4.89621L63.8304 4.8365L63.9496 4.29911L61.9232 3.82143L61.804 4.35882L61.5656 4.29911L61.804 3.52288ZM61.4464 3.70201L61.1484 3.6423L61.5656 1.31362V1.37333L59.5989 3.40346L59.3009 3.34375L59.7777 0.597098L60.0757 0.656808L59.7181 2.98549V2.92578L61.6252 0.895647L61.9232 0.955357L61.4464 3.70201ZM57.5725 1.73159L58.0493 1.79129C58.1685 1.79129 58.2877 1.79129 58.4069 1.79129C58.4665 1.79129 58.5857 1.79129 58.6453 1.73159C58.7049 1.67188 58.8241 1.61217 58.8241 1.55246C58.8837 1.49275 58.8837 1.37333 58.9433 1.31362C58.9433 1.1942 58.9433 1.07478 58.8837 1.01507C58.8241 0.895647 58.7645 0.835938 58.6453 0.776228C58.5261 0.716518 58.4069 0.656808 58.2281 0.656808H58.1685H58.1089H58.0493L57.7513 0.597098L57.5725 1.73159ZM57.1553 3.0452L57.5129 0.298549L58.2281 0.417969C58.4069 0.417969 58.5857 0.477679 58.6453 0.477679C58.7645 0.537388 58.8241 0.537389 58.9433 0.656808C59.0029 0.716518 59.0625 0.776228 59.1221 0.835938C59.1817 0.895647 59.1817 1.01507 59.2413 1.07478C59.2413 1.13449 59.2413 1.25391 59.2413 1.37333C59.2413 1.49275 59.1817 1.61217 59.1221 1.73159C59.0625 1.851 58.9433 1.91071 58.8837 1.97042C58.8241 2.03013 58.7645 2.03013 58.7049 2.03013C58.6453 2.03013 58.5261 2.03013 58.4665 2.03013C58.4069 2.03013 58.2877 2.03013 58.1685 2.03013L57.6321 1.97042L57.5129 3.10491L57.1553 3.0452ZM55.4269 0.358259C55.3078 0.358259 55.2481 0.358259 55.1886 0.358259C55.129 0.358259 55.0694 0.358259 55.0098 0.417969C54.831 0.477679 54.7714 0.537388 54.6522 0.597098C54.533 0.656808 54.4734 0.716518 54.4138 0.835938C54.3542 0.955357 54.2946 1.01507 54.235 1.13449C54.1754 1.25391 54.1754 1.37333 54.1754 1.49275C54.1754 1.67188 54.1754 1.91071 54.2946 2.08984C54.4138 2.26897 54.533 2.4481 54.7118 2.56752C54.8906 2.68694 55.0694 2.74665 55.3078 2.74665C55.5461 2.74665 55.7249 2.74665 55.9037 2.62723C56.0229 2.50781 56.2017 2.38839 56.3209 2.20926C56.4401 2.03013 56.4997 1.851 56.4997 1.61217C56.4997 1.31362 56.4401 1.01507 56.2017 0.776228C56.1421 0.656808 56.0229 0.597098 55.9037 0.477679C55.7845 0.417969 55.6057 0.417969 55.4269 0.358259ZM53.8774 1.25391C53.937 1.01507 53.9966 0.835938 54.1754 0.656808C54.3542 0.477679 54.533 0.358259 54.7118 0.238839C54.9502 0.11942 55.1886 0.11942 55.4269 0.11942C55.6653 0.11942 55.9037 0.238839 56.1421 0.358259C56.3805 0.477679 56.4997 0.716518 56.6189 0.895647C56.7381 1.13449 56.7977 1.37333 56.7381 1.61217C56.7381 1.851 56.6189 2.08984 56.4997 2.32868C56.3805 2.56752 56.1421 2.68694 55.9037 2.80636C55.7249 2.92578 55.4865 2.98549 55.2481 2.98549C54.831 2.92578 54.4734 2.74665 54.235 2.4481C54.1158 2.32868 54.0562 2.14955 53.9966 2.03013C53.937 1.91071 53.937 1.73159 53.937 1.49275H53.5794L53.4602 2.80636H53.1622L53.341 0H53.639L53.5198 1.1942L53.8774 1.25391ZM50.4802 2.80636H50.1822L50.0035 0.477679V0.537388L48.6327 2.98549H48.3347L48.0963 0.238839H48.3943L48.5731 2.56752V2.50781L49.9439 0.0597098H50.2418L50.4802 2.80636ZM45.1163 3.34375L44.8183 0.835938L44.1628 0.895647L44.1032 0.656808L45.6527 0.477679L45.7123 0.716518L45.1163 0.776228L45.4143 3.28404L45.1163 3.34375ZM43.8648 3.52288L43.388 0.776228L43.686 0.716518L44.1628 3.46317L43.8648 3.52288ZM40.9444 4.35882L41.1232 3.58259L41.4212 3.52288L41.2424 4.29911L40.9444 4.35882ZM39.6332 4.41853L38.9181 1.97042L38.3221 2.14955L38.2625 1.91071L39.7524 1.49275L39.812 1.79129L39.2161 1.97042L39.9312 4.35882L39.6332 4.41853ZM37.3685 5.07534L36.5937 2.38839L38.0241 1.97042L38.1433 2.26897L36.9513 2.62723L37.1897 3.58259L38.3221 3.28404L38.3817 3.52288L37.2493 3.82143L37.5473 4.77679L38.7393 4.41853L38.7989 4.65737L37.3685 5.07534ZM36.8321 5.31417L36.5341 5.37388L36.1169 4.11998C36.1169 4.29911 36.0573 4.41853 35.9381 4.53795C35.8785 4.59766 35.7593 4.71708 35.5805 4.77679C35.3421 4.8365 35.1037 4.8365 34.9249 4.77679C34.8057 4.71708 34.6865 4.65737 34.6269 4.53795C34.5673 4.41853 34.5077 4.29911 34.3885 4.06027L34.1502 3.28404L34.3885 3.22433L34.6865 4.06027C34.7461 4.17969 34.8057 4.29911 34.8653 4.41853C34.9249 4.47824 35.0441 4.53795 35.1633 4.59766C35.2825 4.59766 35.4017 4.59766 35.5209 4.53795C35.6997 4.47824 35.8189 4.35882 35.8785 4.2394C35.9381 4.11998 35.9381 4.06027 35.9381 3.94085C35.9381 3.82143 35.9381 3.70201 35.8785 3.52288L35.6401 2.80636L35.8785 2.74665L36.8321 5.31417ZM33.2562 6.56808L33.3158 5.73214L31.647 4.2394L31.945 4.11998L33.3754 5.37388L33.4946 3.52288L33.7926 3.40346L33.6138 6.44866L33.2562 6.56808ZM30.5742 7.82199L30.3358 7.94141L29.263 5.85156V5.91127L28.965 8.65793L28.7267 8.77734L27.4155 6.32924L27.6539 6.20982L28.7267 8.29967V8.23996L29.0247 5.4933L29.3226 5.37388L30.5742 7.82199ZM27.6539 5.79185L27.8923 5.67243C28.0115 5.73214 28.1307 5.73214 28.2499 5.67243C28.3691 5.61272 28.4883 5.4933 28.4883 5.37388L28.7267 5.25447C28.7267 5.31418 28.7267 5.43359 28.7267 5.4933C28.6671 5.67243 28.5479 5.79185 28.3691 5.91127C28.2499 5.97098 28.1307 5.97098 28.0711 5.97098C28.0115 5.97098 27.9519 5.97098 27.8327 5.91127C27.7731 5.91127 27.7135 5.85156 27.6539 5.79185ZM26.2235 9.91183L26.5215 9.7327C26.6407 9.67299 26.7599 9.61328 26.7599 9.55357C26.8791 9.49386 26.9387 9.43415 26.9983 9.31473C27.0579 9.25502 27.0579 9.1356 27.0579 9.07589C27.0579 8.95647 27.0579 8.89676 26.9983 8.83706C26.9387 8.77734 26.9387 8.71764 26.8791 8.65793C26.8195 8.59822 26.7599 8.59822 26.7003 8.59822C26.6407 8.59822 26.5811 8.59822 26.4619 8.59822C26.4023 8.59822 26.3427 8.65793 26.2831 8.65793C26.2235 8.71764 26.1043 8.71764 25.9851 8.83706L25.7467 8.95647L26.2235 9.91183ZM27.9519 9.19531L26.5811 6.80692L26.8195 6.6875L28.1903 9.07589L27.9519 9.19531ZM26.1043 10.2701L24.7335 7.8817L24.9719 7.76228L25.5679 8.77734L25.8659 8.59822C26.0447 8.4788 26.1639 8.41909 26.2831 8.41909C26.4023 8.35938 26.4619 8.35938 26.5811 8.35938C26.7003 8.35938 26.8195 8.41909 26.9387 8.4788C27.0579 8.53851 27.1175 8.65792 27.1771 8.77734C27.2367 8.83705 27.2367 8.95647 27.2963 9.01618C27.2963 9.07589 27.2963 9.19531 27.2963 9.25502C27.2963 9.31473 27.2367 9.43415 27.2367 9.49386C27.1771 9.61328 27.1175 9.67299 27.0579 9.7327C26.9983 9.79241 26.8195 9.91183 26.6407 9.97154L26.1043 10.2701ZM23.6608 10.0313L23.8991 9.85212C24.0183 9.79241 24.1375 9.7327 24.1375 9.67299C24.1971 9.61328 24.2567 9.55357 24.2567 9.49386C24.3163 9.43415 24.3163 9.37444 24.3163 9.25502C24.3163 9.19531 24.3163 9.07589 24.2567 9.01618C24.1971 8.95647 24.1375 8.89676 24.0779 8.83706C24.0183 8.77734 23.9587 8.77734 23.8395 8.77734C23.7799 8.77734 23.7204 8.77734 23.7204 8.77734C23.6608 8.77734 23.6607 8.77734 23.6012 8.83706C23.5416 8.83706 23.482 8.89676 23.4224 8.95647L23.1244 9.1356L23.6608 10.0313ZM24.3759 11.106L24.6739 10.9269C24.7931 10.8672 24.9123 10.8075 24.9123 10.7478C25.0315 10.6881 25.0911 10.6284 25.0911 10.5089C25.1507 10.4492 25.1507 10.3298 25.1507 10.2701C25.1507 10.1507 25.0911 10.091 25.0911 10.0313C25.0315 9.97154 24.9719 9.91183 24.9719 9.85212C24.9123 9.79241 24.8527 9.79241 24.7931 9.79241C24.7335 9.79241 24.6739 9.79241 24.5547 9.79241C24.4951 9.79241 24.4355 9.85212 24.3759 9.85212C24.3163 9.91183 24.1971 9.97154 24.0779 10.0313L23.8395 10.2104L24.3759 11.106ZM24.3163 11.4643L22.8264 9.1356L23.3628 8.77734C23.6012 8.59822 23.7799 8.53851 23.9587 8.53851C24.0779 8.53851 24.1971 8.53851 24.3163 8.65793C24.4355 8.71764 24.4951 8.77734 24.5547 8.89676C24.6143 8.95647 24.6143 9.07589 24.6739 9.19531C24.6739 9.25502 24.6739 9.31473 24.6739 9.37444C24.6739 9.43415 24.6143 9.55357 24.4951 9.61328C24.6143 9.55357 24.7335 9.55357 24.7931 9.49386C24.8527 9.49386 24.9719 9.49386 25.0315 9.49386C25.0911 9.49386 25.1507 9.55357 25.2103 9.61328C25.2699 9.67299 25.3295 9.7327 25.3891 9.79241C25.4487 9.85212 25.4487 9.97154 25.5083 10.0313C25.5083 10.091 25.5083 10.2104 25.5083 10.2701C25.5083 10.3298 25.5083 10.4492 25.4487 10.5089C25.3891 10.6284 25.3295 10.6881 25.2699 10.7478C25.2103 10.8075 25.0911 10.9269 24.9123 11.0463L24.3163 11.4643ZM21.1576 10.6283C20.9788 10.7478 20.8596 10.9269 20.8 11.106C20.7404 11.2852 20.6808 11.524 20.7404 11.7031C20.7404 11.8823 20.8596 12.1211 20.9788 12.2405C21.098 12.4196 21.2768 12.5391 21.4556 12.5988C21.6344 12.6585 21.8728 12.7182 22.0516 12.6585C22.29 12.5988 22.4688 12.5391 22.588 12.4196C22.7072 12.3002 22.8264 12.1808 22.886 12.0614C22.9456 11.942 23.0052 11.7628 23.0052 11.6434C23.0052 11.4643 23.0052 11.3449 22.9456 11.1657C22.886 10.9866 22.8264 10.8672 22.7668 10.7478C22.6476 10.5686 22.4688 10.4492 22.29 10.3895C22.1112 10.3298 21.8728 10.2701 21.694 10.3298C21.5152 10.3895 21.3364 10.5089 21.1576 10.6283ZM20.9788 10.4492C21.2172 10.2701 21.4556 10.1507 21.694 10.1507C21.9324 10.091 22.2304 10.1507 22.4688 10.2104C22.7072 10.3298 22.886 10.4492 23.0648 10.6283C23.2436 10.8075 23.3032 11.0463 23.3628 11.3449C23.4224 11.5837 23.3628 11.8225 23.2436 12.0614C23.1244 12.3002 23.0052 12.4794 22.7668 12.6585C22.588 12.8376 22.3496 12.8973 22.0516 12.957C21.8132 13.0167 21.5748 12.957 21.3364 12.8973C21.098 12.7779 20.9192 12.6585 20.7404 12.4794C20.5616 12.3002 20.502 12.0614 20.4424 11.8225C20.3828 11.5837 20.4424 11.3449 20.502 11.106C20.6212 10.8075 20.8 10.5686 20.9788 10.4492ZM19.31 13.6736L19.6676 13.375C19.7868 13.2556 19.8464 13.1959 19.906 13.1362C19.9656 13.0765 20.0252 13.0167 20.0252 12.8973C20.0252 12.8376 20.0252 12.7182 20.0252 12.6585C20.0252 12.5988 19.9656 12.4794 19.906 12.4196C19.8464 12.3599 19.7272 12.3002 19.608 12.2405C19.4888 12.2405 19.3696 12.2405 19.31 12.2405C19.1908 12.3002 19.0716 12.3599 18.9524 12.4794L18.8928 12.5391H18.8332H18.7736L18.4756 12.7779L19.31 13.6736ZM19.9656 14.8677L18.1777 12.7779L18.714 12.3002C18.8332 12.1808 18.9524 12.0614 19.0716 12.0614C19.1908 12.0017 19.2504 11.942 19.3696 11.942C19.4292 11.942 19.5484 11.942 19.608 11.942C19.6676 11.942 19.7868 12.0017 19.8464 12.0614C19.906 12.1211 19.9656 12.1808 20.0848 12.2405C20.1444 12.3599 20.204 12.4794 20.2636 12.5988C20.3232 12.7182 20.3232 12.8376 20.2636 12.957C20.2636 13.0167 20.204 13.0765 20.204 13.1362C20.1444 13.1959 20.1444 13.2556 20.0848 13.3153C20.0252 13.375 19.9656 13.4347 19.8464 13.5541L19.4292 13.9124L20.1444 14.7483L19.9656 14.8677ZM19.1908 15.226L17.1049 14.2109L18.0585 16.3605L19.1908 15.226ZM17.6413 16.7188L17.7605 16.5993L16.7473 14.0915L16.9857 13.8527L19.4292 15.0469L19.5484 14.9275L20.0848 15.5246L19.906 15.7037L19.4888 15.2857L17.9989 16.7188L18.416 17.1367L18.2373 17.3159L17.6413 16.7188ZM15.0785 16.2411L15.0189 16.1814L15.0785 16.2411L15.6149 17.495L16.3301 16.7188L15.0785 16.2411ZM15.9129 18.8683L14.7209 16.0619L14.9593 15.8231L17.7605 16.8979L17.5817 17.1367L16.6281 16.7785L15.7341 17.7338L16.1513 18.6892L15.9129 18.8683ZM12.635 18.3906L14.7209 20.1819L14.5421 20.4208L12.4562 18.6295L12.635 18.3906ZM13.6481 19.2266L13.4693 17.4353L13.7077 17.1964L13.9461 18.9877H15.8533L15.6149 19.2266H13.6481ZM12.933 22.4509L12.7542 22.6897L10.847 21.3164L10.9066 21.3761L11.9198 23.9436L11.741 24.1825L9.47622 22.5703L9.65502 22.3315L11.5622 23.7048L11.5026 23.6451L10.4894 21.0776L10.6682 20.8387L12.933 22.4509ZM10.251 26.3917L10.1318 26.6306L8.10545 25.4364L8.16504 25.4961L9.41662 28.0039L9.29742 28.2427L6.91347 26.8694L7.03267 26.6306L9.05903 27.8248L8.93983 27.7651L7.68825 25.2573L7.80745 25.0184L10.251 26.3917ZM6.73467 26.2723L6.85387 26.0932C6.97307 26.0932 7.09227 26.0335 7.15186 25.9141C7.21146 25.7946 7.21146 25.6752 7.15186 25.5558L7.27106 25.3767C7.33066 25.4364 7.39026 25.4961 7.39026 25.5558C7.44986 25.7349 7.44986 25.9141 7.33066 26.0932C7.27106 26.2126 7.21146 26.2723 7.15186 26.332C7.09227 26.2723 7.03267 26.2723 6.91347 26.2723C6.91347 26.2723 6.79427 26.2723 6.73467 26.2723ZM7.68825 30.5117L7.86705 30.2132C7.92665 30.0938 7.98625 29.9743 7.98625 29.9743C8.04585 29.8549 8.04585 29.7952 8.04585 29.6758C8.04585 29.5564 8.04585 29.4967 7.98625 29.4369C7.92665 29.3772 7.86705 29.3175 7.80745 29.2578C7.74785 29.1981 7.68825 29.1981 7.62866 29.1981C7.56906 29.1981 7.50946 29.1981 7.44986 29.1981C7.39026 29.1981 7.33066 29.2578 7.27106 29.3175C7.21146 29.3772 7.15186 29.4369 7.15186 29.4967C7.09227 29.5564 7.03267 29.6758 6.97307 29.7952L6.85387 30.034L7.68825 30.5117ZM8.82063 28.9593L6.37708 27.7054L6.49628 27.4665L8.93983 28.7204L8.82063 28.9593ZM7.80745 30.87L5.3639 29.6161L5.4831 29.3772L6.55588 29.9146L6.73467 29.5564C6.85387 29.3772 6.91347 29.2578 6.97307 29.1384C7.03267 29.0787 7.09227 28.9593 7.21146 28.9593C7.33066 28.8996 7.44986 28.8398 7.56906 28.8398C7.68825 28.8398 7.80745 28.8398 7.92665 28.8996C7.98625 28.9593 8.04585 29.019 8.10545 29.0787C8.16505 29.1384 8.22464 29.1981 8.22464 29.2578C8.28424 29.3175 8.28424 29.4369 8.28424 29.4967C8.28424 29.6161 8.28424 29.7355 8.28424 29.7952C8.28424 29.9146 8.16505 30.034 8.10545 30.2132L7.80745 30.87ZM5.60229 31.9448L5.72149 31.6462C5.78109 31.5268 5.84069 31.4074 5.84069 31.3477C5.84069 31.288 5.84069 31.2282 5.84069 31.1685C5.84069 31.1088 5.78109 30.9894 5.78109 30.9297C5.72149 30.87 5.66189 30.8103 5.60229 30.8103C5.54269 30.7506 5.4831 30.7506 5.3639 30.7506C5.3043 30.7506 5.1851 30.8103 5.1255 30.8103C5.0659 30.8103 5.0659 30.87 5.0063 30.9297C5.0063 30.9894 4.94671 30.9894 4.94671 31.0491C4.94671 31.1088 4.88711 31.1685 4.82751 31.288L4.76791 31.5865L5.60229 31.9448ZM6.85387 32.4821L6.97307 32.1836C7.03267 32.0642 7.09227 31.9448 7.09227 31.885C7.15186 31.8253 7.15186 31.7059 7.15186 31.6462C7.15186 31.5268 7.09227 31.4671 7.03267 31.4074C6.97307 31.3477 6.91347 31.288 6.79427 31.2282C6.73467 31.1685 6.67507 31.1685 6.55588 31.1685C6.49628 31.1685 6.43668 31.1685 6.37708 31.2282C6.31748 31.2282 6.25788 31.288 6.19828 31.3477C6.13868 31.4074 6.13868 31.4671 6.07908 31.5268C6.01949 31.5865 5.95989 31.7059 5.90029 31.8253L5.78109 32.0642L6.85387 32.4821ZM6.91347 32.8404L4.41032 31.7059L4.64871 31.1088C4.76791 30.87 4.88711 30.6909 5.0063 30.5714C5.1255 30.5117 5.1851 30.452 5.3639 30.452C5.4831 30.452 5.60229 30.452 5.72149 30.5117C5.84069 30.5714 5.90029 30.6311 5.95989 30.6909C6.01949 30.7506 6.01949 30.8103 6.01949 30.87C6.01949 30.9297 6.01949 31.0491 6.01949 31.1685C6.07908 31.0491 6.13868 30.9894 6.19828 30.9297C6.25788 30.87 6.31748 30.87 6.37708 30.8103C6.43668 30.8103 6.55588 30.8103 6.61547 30.8103C6.67507 30.8103 6.79427 30.87 6.85387 30.87C6.91347 30.9297 7.03267 30.9297 7.09227 30.9894C7.15186 31.0491 7.21146 31.1088 7.27106 31.1685C7.33066 31.2282 7.33066 31.3477 7.33066 31.4074C7.33066 31.5268 7.33066 31.6462 7.33066 31.7059C7.33066 31.8253 7.27106 31.9448 7.15186 32.1239L6.91347 32.8404ZM3.87393 33.7361C3.81433 33.9152 3.75473 34.154 3.81433 34.3332C3.87393 34.5123 3.93353 34.7511 4.05272 34.8705C4.17192 35.0497 4.35072 35.1691 4.52951 35.2288C4.70831 35.2885 4.94671 35.3482 5.1255 35.2885C5.3043 35.2288 5.5427 35.1691 5.66189 35.0497C5.84069 34.9303 5.95989 34.7511 6.01949 34.572C6.07908 34.3929 6.07908 34.2734 6.07908 34.0943C6.07908 33.9152 6.01949 33.7958 5.95989 33.6763C5.90029 33.5569 5.84069 33.4375 5.72149 33.3181C5.60229 33.1987 5.4831 33.139 5.3639 33.0792C5.1851 33.0195 4.94671 32.9598 4.76791 33.0195C4.58911 33.0792 4.35072 33.139 4.23152 33.2584C4.05272 33.3778 3.93353 33.4972 3.87393 33.7361ZM3.63553 33.6166C3.75473 33.3778 3.87393 33.139 4.11232 32.9598C4.29112 32.8404 4.46992 32.721 4.76791 32.721C5.00631 32.6613 5.2447 32.721 5.4831 32.7807C5.72149 32.9001 5.90029 33.0195 6.07908 33.2584C6.25788 33.4375 6.31748 33.6763 6.37708 33.9749C6.43668 34.2137 6.37708 34.5123 6.25788 34.7511C6.13868 34.99 6.01949 35.1691 5.84069 35.3482C5.66189 35.5273 5.4235 35.5871 5.1851 35.6468C4.94671 35.7065 4.70831 35.6468 4.46992 35.5871C4.23152 35.4676 4.05272 35.3482 3.87393 35.1691C3.69513 34.8705 3.57593 34.6317 3.51633 34.3929C3.51633 34.0943 3.51633 33.8555 3.63553 33.6166ZM5.3043 37.2589L5.2447 37.4978L2.62235 36.6021L3.09914 35.2885L3.33754 35.3482L2.97994 36.423L5.3043 37.2589ZM2.26476 38.692C2.20516 38.8711 2.20516 39.1099 2.26476 39.2891C2.32436 39.4682 2.44355 39.6473 2.56275 39.8265C2.68195 40.0056 2.86075 40.0653 3.09914 40.125C3.27794 40.1847 3.51633 40.1847 3.69513 40.125C3.87393 40.0653 4.05272 39.9459 4.23152 39.8265C4.41032 39.707 4.46991 39.5279 4.52951 39.2891C4.58911 39.1099 4.58911 38.9905 4.58911 38.8114C4.58911 38.6323 4.52951 38.5128 4.46992 38.3934C4.41032 38.274 4.29112 38.1546 4.17192 38.0352C4.05272 37.9157 3.93353 37.856 3.75473 37.7963C3.57593 37.7366 3.33754 37.7366 3.15874 37.7963C2.97994 37.856 2.80115 37.9755 2.62235 38.0949C2.44355 38.3337 2.32436 38.5128 2.26476 38.692ZM2.02636 38.6323C2.08596 38.3934 2.20516 38.1546 2.44355 37.9754C2.62235 37.7963 2.86075 37.6769 3.09914 37.6172C3.33754 37.5575 3.57593 37.5575 3.87393 37.6172C4.11232 37.6769 4.35072 37.7963 4.52951 38.0352C4.70831 38.2143 4.82751 38.4531 4.88711 38.692C4.94671 38.9308 4.94671 39.1696 4.88711 39.4682C4.82751 39.707 4.70831 39.9459 4.52951 40.125C4.35072 40.3041 4.11232 40.4236 3.87393 40.4833C3.63553 40.543 3.39714 40.543 3.15874 40.4833C2.92034 40.4236 2.68195 40.3041 2.50315 40.125C2.32436 39.9459 2.20516 39.707 2.14556 39.4682C1.96676 39.1696 1.96676 38.8711 2.02636 38.6323ZM1.60917 41.7969L3.87393 43.1105L3.81433 43.409L1.25158 41.9163L1.31118 41.6177L4.23152 41.0804L4.17192 41.4386L1.60917 41.7969ZM1.25158 44.4838H1.19198H1.25158L2.38395 45.2003L2.50315 44.1256L1.25158 44.4838ZM3.45673 46.1557L0.834384 44.6032L0.893983 44.3047L3.81433 43.4688L3.75473 43.7673L2.80115 44.0659L2.62235 45.3198L3.51633 45.8572L3.45673 46.1557ZM3.21834 48.4247L0.476791 48.1858V47.8873L1.66877 48.0067L1.78797 46.5737L0.595989 46.4543V46.1557L3.33754 46.3945V46.6931L2.02636 46.5737L1.90716 48.0067L3.21834 48.1261V48.4247ZM3.33754 51.5296L2.62235 51.1713V50.8728L3.33754 51.231V51.5296ZM3.09914 52.1267V52.4252L0.715186 52.4849H0.774785L3.09914 53.9777V54.2762L0.417192 54.3359V54.0374L2.80115 53.9777H2.74155L0.417192 52.4849V52.1864L3.09914 52.1267ZM0 53.8583V53.6194C0.119198 53.5597 0.178797 53.4403 0.178797 53.2612C0.178797 53.082 0.119198 52.9626 0 52.9626V52.7238C0.0595989 52.7238 0.119198 52.7835 0.178797 52.8432C0.297994 52.9626 0.357593 53.082 0.357593 53.3209C0.357593 53.4403 0.357593 53.5597 0.297994 53.6194C0.238395 53.6791 0.238395 53.7388 0.178797 53.7986C0.178797 53.7986 0.119198 53.8583 0 53.8583ZM3.15874 54.8136V55.1122L0.834384 55.2913H0.893983L3.33754 56.6646V56.9632L0.595989 57.1423V56.8438L2.92034 56.6646H2.86075L0.417192 55.2913V54.9928L3.15874 54.8136ZM0.834384 59.2321L3.57593 58.8739L3.63553 59.1724L0.893983 59.5307L0.834384 59.2321ZM2.14556 59.053L0.655588 57.9782L0.595989 57.62L2.08596 58.6351L3.33754 57.202L3.39714 57.5603L2.14556 59.053ZM1.66877 59.9487L1.72837 60.2472C1.60917 60.3666 1.54957 60.4263 1.54957 60.4861C1.48997 60.6055 1.43037 60.7249 1.43037 60.8443C1.43037 60.9637 1.43037 61.0832 1.43037 61.2623C1.48997 61.4414 1.54957 61.6205 1.66877 61.7997C1.78797 61.9788 1.96676 62.0982 2.14556 62.1579C2.32436 62.2176 2.56275 62.2774 2.74155 62.2176C2.92034 62.1579 3.09914 62.0982 3.27794 61.9788C3.45673 61.8594 3.57593 61.6803 3.63553 61.5011C3.69513 61.322 3.75473 61.0832 3.69513 60.904C3.63553 60.7249 3.57593 60.5458 3.45673 60.4263C3.39714 60.3666 3.33754 60.3069 3.27794 60.2472C3.21834 60.1875 3.15874 60.1278 3.03954 60.0681L2.97994 59.7098C3.09914 59.7695 3.15874 59.7695 3.21834 59.8292C3.27794 59.889 3.33754 59.889 3.39714 59.9487C3.69513 60.1875 3.87393 60.4861 3.93353 60.8443C3.99312 61.0832 3.93353 61.3817 3.87393 61.6205C3.81433 61.8594 3.63553 62.0385 3.45673 62.2176C3.27794 62.3968 3.03954 62.5162 2.80115 62.5162C2.56275 62.5759 2.32436 62.5162 2.08596 62.4565C1.84756 62.3968 1.66877 62.2176 1.48997 62.0385C1.31118 61.8594 1.19198 61.6205 1.19198 61.3817C1.13238 61.0832 1.19198 60.8443 1.25158 60.5458C1.31118 60.3666 1.43037 60.2472 1.48997 60.1278C1.54957 60.0681 1.60917 60.0084 1.66877 59.9487ZM3.27794 64.3672L3.15874 63.8895C3.09914 63.7701 3.09914 63.6507 3.03954 63.591C2.97994 63.5313 2.97994 63.4715 2.92034 63.4118C2.86075 63.3521 2.80115 63.2924 2.68195 63.2924C2.62235 63.2924 2.50315 63.2924 2.38395 63.2924C2.26476 63.2924 2.20516 63.3521 2.08596 63.4715C2.02636 63.5313 1.96676 63.6507 1.96676 63.7701C1.96676 63.8895 1.96676 64.0089 2.02636 64.1881V64.2478V64.3075V64.3672L2.08596 64.7255L3.27794 64.3672ZM4.64871 64.3075L1.96676 64.9046L1.78797 64.2478C1.72837 64.0686 1.72837 63.8895 1.72837 63.8298C1.72837 63.7104 1.72837 63.591 1.78797 63.5313C1.78797 63.4715 1.84756 63.3521 1.90716 63.2924C1.96676 63.2327 2.02636 63.173 2.08596 63.1133C2.14556 63.0536 2.26476 63.0536 2.32436 62.9939C2.44355 62.9342 2.56275 62.9342 2.68195 62.9939C2.80115 62.9939 2.92034 63.0536 2.97994 63.173C3.03954 63.2327 3.09914 63.2924 3.09914 63.3521C3.15874 63.4118 3.15874 63.4715 3.21834 63.591C3.27794 63.6507 3.27794 63.7701 3.27794 63.8895L3.39714 64.4269L4.46992 64.1881L4.64871 64.3075ZM5.1851 66.2779L2.50315 67.0541L2.08596 65.6211L2.32436 65.5614L2.68195 66.7556L3.63553 66.5168L3.33754 65.3823L3.57593 65.3226L3.87393 66.457L4.88711 66.1585L4.52951 64.9643L4.76791 64.9046L5.1851 66.2779ZM5.60229 67.4124L3.21834 68.2483L3.39714 68.8454L3.15874 68.9051L2.68195 67.4721L2.92034 67.4124L3.09914 68.0095L5.4831 67.1736L5.60229 67.4124ZM3.93353 70.159L6.55588 70.0993L6.67507 70.3979L3.69513 70.4576L3.57593 70.0993L5.78109 68.0692L5.90029 68.3678L3.93353 70.159ZM5.0063 72.6669L4.94671 72.7266L5.0063 72.6669H6.37708L5.90029 71.6518L5.0063 72.6669ZM7.74785 72.9057L4.76791 72.9654L4.64871 72.6669L6.67507 70.4576L6.79427 70.7561L6.13868 71.5324L6.67507 72.7266H7.68825L7.74785 72.9057ZM8.28424 73.9805L8.40344 74.2193L5.95989 75.4732L5.3043 74.2193L5.5427 74.0999L6.07908 75.115L8.28424 73.9805ZM9.65502 76.4286L7.98625 76.3092L7.27106 77.7422L7.09227 77.4436L7.68825 76.2495L6.37708 76.1897L6.19828 75.8912L7.80745 76.0106L8.58224 74.4582L8.76103 74.7567L8.10545 76.0106L9.53582 76.0703L9.65502 76.4286ZM10.4298 77.8616L9.59542 77.9213L8.34384 79.7723L8.16504 79.4738L9.17823 77.9213L7.33066 78.1005L7.15186 77.8616L10.1914 77.5631L10.4298 77.8616ZM11.443 79.832L11.2642 79.5335C11.2046 79.4141 11.145 79.2947 11.0854 79.2947C11.0258 79.1752 10.9662 79.1155 10.847 79.1155C10.7874 79.0558 10.6682 79.0558 10.6086 79.0558C10.4894 79.0558 10.4298 79.1155 10.3702 79.1155C10.3106 79.1752 10.251 79.2349 10.1914 79.2349C10.1318 79.2947 10.1318 79.3544 10.1318 79.4141C10.1318 79.4738 10.1318 79.5335 10.1318 79.6529C10.1318 79.7126 10.1914 79.7723 10.1914 79.832C10.251 79.8917 10.3106 80.0112 10.3702 80.1306L10.549 80.3694L11.443 79.832ZM11.8006 79.9515L9.47622 81.4442L8.70144 80.1903L8.93983 80.0709L9.59542 81.086L10.3702 80.6083L10.1914 80.3097C10.0722 80.1306 10.0126 80.0112 9.95301 79.8918C9.89341 79.7723 9.89341 79.7126 9.89341 79.5932C9.89341 79.4738 9.95301 79.3544 10.0126 79.2349C10.0722 79.1155 10.1914 79.0558 10.251 78.9364C10.3106 78.8767 10.4298 78.8767 10.4894 78.817C10.549 78.817 10.6682 78.817 10.7278 78.817C10.7874 78.817 10.9066 78.817 10.9662 78.8767C11.0854 78.9364 11.145 78.9961 11.2046 79.0558C11.2642 79.1155 11.3834 79.2349 11.5026 79.4141L11.8006 79.9515Z" fill="#037AA6"/>
    <path d="M93.3316 79.414L93.57 79.2946L93.868 79.9514L94.5832 80.0111L94.5236 80.25L93.6892 80.1903L93.3316 79.414ZM92.974 79.8917L93.2124 79.7723L93.5104 80.4291L94.2256 80.4888L94.166 80.7277L93.3316 80.668L92.974 79.8917ZM93.7488 78.0407L95.8944 79.414L96.252 78.8767L96.4904 78.9961L95.656 80.3097L95.4176 80.1903L95.7752 79.6529L93.6296 78.2796L93.7488 78.0407ZM96.848 77.6228L95.1196 75.5926L95.2984 75.3538L97.1459 77.6228L96.9671 77.8616L94.0468 77.3839L94.2256 77.0854L96.848 77.6228ZM98.0995 75.2344H98.1591H98.0995L97.2651 74.1596L96.7884 75.1149L98.0995 75.2344ZM96.55 72.9057L98.4571 75.2344L98.3379 75.5329L95.358 75.3538L95.4772 75.1149L96.4904 75.1746L97.0863 74.0402L96.4308 73.2639L96.55 72.9057ZM98.5167 73.5625L98.6359 73.2639C98.7551 73.2639 98.8743 73.2042 98.9339 73.1445C99.0531 73.0848 99.1723 73.0251 99.2319 72.9057C99.3511 72.7863 99.4107 72.7265 99.4703 72.6071C99.5299 72.428 99.5895 72.2489 99.5895 72.01C99.5895 71.8309 99.4703 71.5921 99.3511 71.4726C99.2319 71.2935 99.0531 71.1741 98.8743 71.1144C98.6955 71.0547 98.4571 70.995 98.2783 70.995C98.0995 70.995 97.8611 71.1144 97.6823 71.2338C97.5035 71.3532 97.3843 71.5323 97.3247 71.7115C97.2651 71.8906 97.2056 72.0697 97.2056 72.2489C97.2056 72.3683 97.2055 72.428 97.2651 72.4877C97.2651 72.5474 97.3247 72.6668 97.3843 72.7863L97.2651 73.0848C97.2055 72.9654 97.1459 72.9057 97.1459 72.846C97.1459 72.7863 97.0863 72.7265 97.0863 72.6071C96.9671 72.2489 97.0268 71.8906 97.1459 71.5921C97.2651 71.3532 97.3843 71.1741 97.6227 70.995C97.8015 70.8158 98.0399 70.7561 98.3379 70.7561C98.5763 70.7561 98.8147 70.7561 99.0531 70.8755C99.2915 70.995 99.4703 71.1144 99.6491 71.3532C99.7683 71.5323 99.8875 71.7712 99.8875 72.0697C99.8875 72.3086 99.8875 72.5474 99.7683 72.7863C99.6491 73.0251 99.4703 73.2639 99.2319 73.4431C99.1127 73.5625 98.9339 73.6222 98.8147 73.6222C98.6955 73.5028 98.6359 73.5625 98.5167 73.5625ZM98.5763 67.89L101.199 68.7857L101.139 69.0245L100.007 68.6066L99.5299 69.9799L100.662 70.3979L100.543 70.6367L97.9207 69.7411L98.0399 69.5022L99.2915 69.9202L99.7683 68.5469L98.5167 68.1289L98.5763 67.89ZM101.616 66.7556C101.675 66.5764 101.675 66.3376 101.616 66.1585C101.556 65.9793 101.437 65.8002 101.318 65.6211C101.199 65.4419 101.02 65.3822 100.781 65.3225C100.603 65.2628 100.364 65.2628 100.185 65.3225C100.007 65.3822 99.8279 65.5017 99.6491 65.6211C99.4703 65.7405 99.4107 65.9196 99.3511 66.1585C99.2915 66.3376 99.2915 66.457 99.2915 66.6361C99.2915 66.8153 99.3511 66.9347 99.4107 67.0541C99.4703 67.1735 99.5895 67.2929 99.7087 67.4124C99.8279 67.5318 99.9471 67.5915 100.126 67.6512C100.305 67.7109 100.543 67.7109 100.722 67.6512C100.901 67.5915 101.079 67.4721 101.258 67.3527C101.437 67.1735 101.556 66.9944 101.616 66.7556ZM101.854 66.8153C101.795 67.0541 101.675 67.2929 101.437 67.4721C101.258 67.6512 101.02 67.7706 100.781 67.8303C100.543 67.89 100.305 67.89 100.007 67.8303C99.7683 67.7706 99.5299 67.6512 99.3511 67.4721C99.1723 67.2929 99.0531 67.0541 98.9935 66.8153C98.9339 66.5764 98.9339 66.3376 98.9935 66.039C99.0531 65.8002 99.1723 65.5614 99.3511 65.3822C99.5299 65.2031 99.7683 65.0837 100.007 65.024C100.245 64.9643 100.483 64.9643 100.722 65.024C100.96 65.0837 101.199 65.2031 101.377 65.3822C101.556 65.5614 101.675 65.8002 101.735 66.039C101.914 66.3376 101.914 66.5764 101.854 66.8153ZM102.689 63.4715L100.007 62.8744L100.066 62.5759L102.748 63.173L102.689 63.4715ZM101.377 63.2327L102.391 64.7254L102.331 65.0837L101.318 63.5909L99.6491 64.5463L99.7087 64.188L101.377 63.2327ZM102.629 60.3666L102.689 60.0681C102.808 60.0083 102.867 59.9486 102.927 59.8889C103.046 59.7695 103.106 59.7098 103.165 59.5904C103.225 59.471 103.285 59.3515 103.285 59.2321C103.285 59.053 103.285 58.8142 103.225 58.635C103.165 58.4559 103.046 58.2768 102.867 58.1573C102.689 58.0379 102.51 57.9782 102.331 57.9185C102.152 57.9185 101.914 57.9185 101.735 57.9782C101.556 58.0379 101.377 58.1573 101.258 58.3365C101.139 58.5156 101.079 58.6947 101.02 58.8739C101.02 59.053 101.02 59.2321 101.079 59.4113C101.139 59.5307 101.139 59.5904 101.199 59.6501C101.258 59.7098 101.318 59.7695 101.377 59.8889L101.318 60.1875C101.199 60.1278 101.139 60.0681 101.079 60.0084C101.02 59.9486 100.96 59.8889 100.96 59.8292C100.722 59.5307 100.662 59.1724 100.722 58.8142C100.781 58.5753 100.841 58.3365 101.02 58.0976C101.199 57.9185 101.377 57.7394 101.616 57.62C101.854 57.5005 102.093 57.5005 102.331 57.5005C102.569 57.5602 102.808 57.62 103.046 57.7991C103.225 57.9782 103.404 58.1573 103.463 58.3962C103.583 58.635 103.583 58.8739 103.583 59.1127C103.523 59.4113 103.463 59.6501 103.285 59.8889C103.165 60.0084 103.046 60.1278 102.927 60.1875C102.748 60.3069 102.689 60.3666 102.629 60.3666ZM101.079 55.5301L103.821 55.769L103.702 57.2617H103.463L103.583 56.0078L102.629 55.9481L102.51 57.1423H102.271L102.391 55.9481L101.377 55.8884L101.258 57.1423H101.02L101.079 55.5301ZM101.139 54.3359L103.642 54.3956V53.7388H103.881L103.821 55.2913H103.583V54.6345L101.079 54.5748L101.139 54.3359ZM102.569 52.0072V52.4849C102.569 52.6043 102.569 52.7237 102.569 52.8432C102.569 52.9029 102.629 53.0223 102.629 53.082C102.689 53.1417 102.748 53.2014 102.808 53.2611C102.867 53.3208 102.987 53.3208 103.106 53.3208C103.225 53.3208 103.344 53.3208 103.404 53.2611C103.523 53.2014 103.583 53.1417 103.583 53.0223C103.642 52.9029 103.642 52.7835 103.642 52.6043V52.5446V52.4849V52.4252V52.0669L102.569 52.0072ZM101.199 51.7087L103.94 51.7684V52.4849C103.94 52.664 103.94 52.8432 103.881 52.9029C103.881 53.0223 103.821 53.082 103.761 53.2014C103.702 53.2611 103.642 53.3208 103.583 53.3806C103.523 53.4403 103.404 53.5 103.344 53.5C103.285 53.5 103.165 53.5597 103.046 53.5597C102.927 53.5597 102.808 53.5 102.689 53.4403C102.569 53.3806 102.51 53.3208 102.391 53.2014C102.331 53.1417 102.331 53.082 102.271 53.0223C102.271 52.9626 102.212 52.9029 102.212 52.7835C102.212 52.7237 102.212 52.6043 102.212 52.4849V51.9475H101.079L101.199 51.7087ZM103.702 49.7383C103.702 49.4994 103.642 49.3203 103.523 49.1412C103.404 48.962 103.285 48.8426 103.106 48.7232C102.927 48.6038 102.748 48.5441 102.51 48.6038C102.331 48.6038 102.093 48.6635 101.914 48.7829C101.735 48.9023 101.616 49.0217 101.497 49.2606C101.377 49.4397 101.377 49.6188 101.377 49.8577C101.377 50.0368 101.437 50.1562 101.497 50.3354C101.556 50.4548 101.675 50.5742 101.735 50.6936C101.854 50.813 101.973 50.8727 102.093 50.9325C102.212 50.9922 102.391 50.9922 102.569 50.9922C102.748 50.9922 102.987 50.9325 103.165 50.813C103.344 50.6936 103.463 50.5742 103.583 50.3354C103.642 50.1562 103.702 49.9174 103.702 49.7383ZM104 49.6785C104 49.9771 103.94 50.2159 103.821 50.4548C103.702 50.6936 103.523 50.8727 103.344 50.9922C103.106 51.1116 102.867 51.231 102.629 51.231C102.391 51.231 102.152 51.1713 101.914 51.0519C101.675 50.9325 101.497 50.7533 101.377 50.5145C101.258 50.2756 101.199 50.0368 101.139 49.798C101.139 49.5591 101.199 49.3203 101.318 49.0814C101.437 48.8426 101.616 48.6635 101.795 48.5441C102.033 48.4246 102.271 48.3052 102.51 48.3052C102.748 48.3052 102.987 48.3649 103.225 48.4843C103.463 48.6038 103.642 48.7829 103.761 49.0217C103.881 49.2009 103.94 49.4397 104 49.6785ZM100.841 45.9168L103.583 45.5586L103.642 45.8571L102.45 46.0362L102.629 47.4693L103.821 47.2902L103.881 47.5887L101.139 47.947L101.079 47.6484L102.391 47.4693L102.212 46.0362L100.901 46.2154L100.841 45.9168ZM101.139 45.2003L101.854 44.6629L102.629 45.0212L102.569 45.26L101.914 44.9615L101.318 45.3794L101.139 45.2003ZM101.02 44.5435L101.735 44.0061L102.51 44.3047L102.45 44.5435L101.795 44.3047L101.199 44.7226L101.02 44.5435ZM99.8279 40.3041L102.51 39.707L102.867 41.1997L102.629 41.2595L102.331 40.0653L101.377 40.3041L101.675 41.4983L101.437 41.558L101.139 40.3638L100.126 40.6027L100.424 41.7968H100.126L99.8279 40.3041ZM99.7087 39.7667L99.6491 39.5279L101.914 38.8711H101.854L99.2319 38.0351L99.1723 37.7963L101.854 37.0201L101.914 37.2589L99.6491 37.9157H99.7087L102.331 38.7516L102.391 38.9905L99.7087 39.7667ZM98.3379 35.2885L100.96 34.3928L101.02 34.6317L99.8875 35.0496L100.364 36.423L101.497 36.005L101.616 36.2438L98.9935 37.1395L98.8743 36.9006L100.126 36.4827L99.6491 35.1093L98.3975 35.5273L98.3379 35.2885ZM97.5631 33.4375L100.126 32.4224L100.662 33.8554L100.424 33.9749L99.9471 32.8404L99.0531 33.1986L99.4703 34.3331L99.2319 34.4525L98.8147 33.318L97.8611 33.6763L98.3379 34.8108L98.0995 34.9302L97.5631 33.4375ZM97.5035 32.5418L99.1723 30.8699L96.848 31.0491L97.5035 32.5418ZM96.6096 30.6311L96.6692 30.8102L99.3511 30.6311L99.4703 30.9297L97.5631 32.8404L97.6227 33.0195L96.848 33.3778L96.7288 33.1389L97.2651 32.9001L96.4308 31.0491L95.8944 31.2879L95.7752 31.0491L96.6096 30.6311ZM96.848 28.4218L95.06 28.1233L94.8812 27.8247L96.6692 28.1233L97.3843 26.6305L97.5631 26.9291L96.848 28.4218ZM96.9671 28.7204L98.5763 29.0189L98.7551 29.3175L97.1459 29.0189L96.3712 30.6311L96.1924 30.3326L96.9671 28.7204ZM95.5964 29.0787L98.0399 27.8247L98.1591 28.0636L95.7156 29.3175L95.5964 29.0787ZM96.1924 25.0184C96.0732 24.8393 95.954 24.7198 95.7156 24.6004C95.5368 24.481 95.358 24.481 95.1196 24.481C94.8812 24.481 94.7024 24.5407 94.5236 24.6601C94.3448 24.7795 94.2256 24.899 94.1064 25.0781C93.9872 25.2572 93.9872 25.4364 93.9872 25.6752C93.9872 25.914 94.0468 26.0932 94.166 26.2723C94.2256 26.3917 94.3448 26.5111 94.464 26.6305C94.5832 26.6903 94.7024 26.8097 94.8812 26.8097C95.06 26.8694 95.1792 26.8694 95.358 26.8097C95.5368 26.8097 95.656 26.75 95.7752 26.6305C95.954 26.5111 96.0732 26.3917 96.1924 26.1529C96.3116 25.9737 96.3116 25.7946 96.3116 25.5558C96.3712 25.3766 96.3116 25.1975 96.1924 25.0184ZM96.4308 24.8393C96.55 25.0781 96.6692 25.3169 96.6692 25.5558C96.6692 25.7946 96.6096 26.0932 96.55 26.2723C96.4308 26.5111 96.252 26.6903 96.0732 26.8097C95.8348 26.9291 95.5964 27.0485 95.358 27.0485C95.1196 27.0485 94.8812 26.9888 94.6428 26.8694C94.4044 26.75 94.2256 26.5708 94.1064 26.332C93.9872 26.0932 93.868 25.8543 93.868 25.6155C93.868 25.3766 93.9276 25.1378 93.9872 24.899C94.1064 24.6601 94.2852 24.481 94.464 24.3616C94.7024 24.2422 94.9408 24.1227 95.1792 24.1227C95.4176 24.1227 95.656 24.1824 95.8944 24.3019C96.0732 24.481 96.252 24.6004 96.4308 24.8393ZM93.57 22.7494L93.7488 22.9882C93.8084 23.1077 93.9276 23.1674 93.9276 23.2271C93.9872 23.2868 94.0468 23.3465 94.1064 23.3465C94.166 23.4062 94.2256 23.4062 94.3448 23.4062C94.4044 23.4062 94.5236 23.3465 94.5832 23.3465C94.6428 23.2868 94.7024 23.2271 94.7024 23.1674C94.762 23.1077 94.762 22.9882 94.762 22.9285C94.762 22.8688 94.762 22.8091 94.7024 22.8091C94.7024 22.7494 94.6428 22.7494 94.6428 22.6897C94.6428 22.63 94.5832 22.5703 94.5236 22.5106L94.3448 22.2717L93.57 22.7494ZM92.4972 23.5256L92.676 23.8242C92.7356 23.9436 92.7952 24.0033 92.8548 24.063C92.9144 24.1227 93.0336 24.2422 93.0932 24.2422C93.1528 24.3019 93.272 24.3019 93.3316 24.3019C93.4508 24.3019 93.5104 24.2422 93.57 24.1824C93.6296 24.1227 93.6892 24.063 93.6892 24.0033C93.7488 23.9436 93.7488 23.8839 93.7488 23.8242C93.7488 23.7645 93.7488 23.7048 93.7488 23.5853C93.7488 23.5256 93.6892 23.4659 93.6892 23.4062C93.6296 23.3465 93.57 23.2271 93.5104 23.1077L93.3316 22.8688L92.4972 23.5256ZM92.1396 23.4659L94.4044 21.8538L94.762 22.3911C94.9408 22.63 95.0004 22.8091 95.0004 22.9882C95.0004 23.1077 95.0004 23.2271 94.9408 23.3465C94.8812 23.4659 94.8216 23.5256 94.7024 23.6451C94.6428 23.7048 94.5236 23.7645 94.4044 23.7645C94.3448 23.7645 94.2852 23.7645 94.2256 23.7645C94.166 23.7645 94.0468 23.7048 93.9276 23.5853C93.9872 23.7048 94.0468 23.8242 94.0468 23.8839C94.0468 23.9436 94.0468 24.063 94.0468 24.1227C94.0468 24.1824 93.9872 24.2422 93.9276 24.3616C93.868 24.4213 93.8084 24.481 93.7488 24.5407C93.6892 24.6004 93.57 24.6601 93.5104 24.6601C93.4508 24.6601 93.3316 24.7198 93.272 24.7198C93.2124 24.7198 93.0932 24.7198 93.0336 24.6601C92.9144 24.6004 92.8548 24.5407 92.7952 24.481C92.7356 24.4213 92.6164 24.3019 92.4972 24.1227L92.1396 23.4659Z" fill="#037AA6"/>
    <path fill-rule="evenodd" clip-rule="evenodd" d="M40.8852 73.9803C44.6399 72.0696 48.9907 69.8006 54.0566 68.3078C61.6852 66.0389 70.625 65.2626 78.6709 69.92C81.5912 72.189 78.9689 60.4859 78.6709 59.0528C76.2869 47.1706 71.221 37.5573 63.056 28.1231C60.672 25.3168 49.3482 11.7626 45.0571 11.1655C44.8783 11.5238 46.4279 14.2704 47.5007 18.4501C51.315 33.1985 49.7654 47.3497 45.4147 61.2621C43.2692 68.069 40.5276 73.9206 40.8852 73.9803Z" fill="#037AA6"/>
    <path fill-rule="evenodd" clip-rule="evenodd" d="M27.2366 83.1159C29.9782 81.2052 32.8389 78.4585 34.8653 76.9658C37.2493 70.9351 39.1564 65.0238 40.5868 59.7097C41.4212 59.4708 42.196 59.3514 43.0303 59.232C46.0103 58.8737 48.8114 59.1126 50.8974 59.4708C50.3014 61.7398 49.5862 64.0685 48.6326 66.3972C47.6791 68.905 46.0699 72.8458 44.8183 75.9507C36.7129 79.3542 29.6802 84.131 26.5811 88.6092C35.7593 83.3548 55.9633 74.6968 69.7902 80.2498C73.0682 81.5635 76.2269 82.1606 77.7169 81.0261C80.518 78.9362 79.3857 73.4429 70.9822 71.7711C64.5455 70.4574 56.4997 71.7711 48.9306 74.3983C50.8974 69.1438 52.3278 64.1282 53.2813 59.9485C54.1157 60.1276 54.6521 60.3068 54.7713 60.3068C59.718 61.6204 62.102 56.6048 55.0693 55.1717C54.8309 55.112 54.5329 55.0523 54.2349 55.0523C54.4733 53.4998 54.6521 52.2459 54.7117 51.2309C55.4269 40.9011 53.7581 29.9742 53.2813 29.8548C53.1026 29.795 53.4005 32.9 53.4005 33.4373C53.4005 40.9608 53.1622 47.8871 51.851 54.9329C48.4538 54.9329 44.6395 55.8285 41.1828 57.2019C43.0303 50.0367 44.0435 44.0657 44.2819 40.5428C45.3547 25.3765 42.9111 9.43399 42.196 9.25486C41.9576 9.19515 42.3748 13.6734 42.3748 14.4496C42.3748 30.213 41.7192 44.3045 36.5341 59.4111C34.0309 60.8442 32.0046 62.516 30.9318 64.0685C32.8389 62.9937 34.3885 62.0981 35.8189 61.4413C35.6401 61.8592 35.5209 62.2772 35.3421 62.7549C33.1965 68.6064 28.5478 79.6527 27.2366 83.1159Z" fill="#62C3D0"/>
</svg>
