<svg width="18" height="25" viewBox="0 0 18 25" fill="none" xmlns="http://www.w3.org/2000/svg">
    <path d="M10.0491 24.6355C8.86767 25.3522 7.32833 24.9764 6.61092 23.7962C2.20246 16.5443 0 11.609 0 8.74079C0 3.91338 3.91755 0 8.75009 0C13.5826 0 17.5002 3.91338 17.5002 8.74079C17.5002 11.609 15.2977 16.5443 10.8892 23.7962C10.6807 24.1393 10.3925 24.4272 10.0491 24.6355ZM8.7594 12.5001C10.8327 12.5001 12.5134 10.8212 12.5134 8.75009C12.5134 6.679 10.8327 5.00005 8.7594 5.00005C6.6861 5.00005 5.00537 6.679 5.00537 8.75009C5.00537 10.8212 6.6861 12.5001 8.7594 12.5001Z" fill="#2293D7"/>
</svg>
