<svg width="33" height="26" viewBox="0 0 33 26" fill="none" xmlns="http://www.w3.org/2000/svg">
    <g clip-path="url(#clip0_95_1616)">
        <path d="M15.5872 0.030469C15.5872 0.913137 15.5872 1.71838 15.5872 2.60105C14.8015 2.77139 14.0472 2.92624 13.2929 3.09658C10.7786 3.68503 8.59433 4.769 7.40004 7.15376C7.05433 7.8506 6.89718 8.67133 6.85004 9.4456C6.78718 10.638 7.40004 11.5206 8.53147 11.9852C9.17575 12.2485 9.85147 12.4807 10.5272 12.6511C16.5929 14.1686 16.2472 20.657 13.6072 23.5838C10.2129 27.3777 4.13147 26.5879 1.72718 21.8804C-1.0071 16.5379 -0.441389 11.2419 2.96861 6.364C5.76575 2.38425 9.72575 0.231779 14.6915 -0.000501822C14.9743 -0.0159872 15.2572 0.030469 15.5872 0.030469Z" fill="white"/>
        <path d="M32.9993 0.0929305C32.9993 0.975598 32.9993 1.78084 32.9993 2.66351C32.2136 2.83385 31.4593 2.9887 30.705 3.15904C28.1907 3.74748 26.0064 4.83146 24.8122 7.21621C24.4664 7.91306 24.3093 8.73378 24.2622 9.50805C24.1993 10.7004 24.8122 11.5831 25.9436 12.0477C26.5879 12.3109 27.2636 12.5432 27.9393 12.7135C34.005 14.2311 33.6593 20.7195 31.0193 23.6462C27.625 27.4401 21.5436 26.6504 19.1393 21.9428C16.405 16.6004 16.9707 11.3044 20.3807 6.42646C23.1622 2.44671 27.1379 0.294241 32.1036 0.0619597C32.4022 0.0464743 32.685 0.0774451 32.9993 0.0929305Z" fill="white"/>
    </g>
    <defs>
        <clipPath id="clip0_95_1616">
            <rect width="33" height="26" fill="white"/>
        </clipPath>
    </defs>
</svg>
