<svg width="43" height="44" viewBox="0 0 43 44" fill="none" xmlns="http://www.w3.org/2000/svg">
    <path d="M21.5 0.0146484C20.3213 0.0146484 19.3528 0.991676 19.3528 2.17911V5.08962C18.5831 5.67736 18.0458 6.56027 17.9391 7.5756C16.2406 7.90984 14.8852 8.43541 13.5579 8.91523C12.2344 9.39369 10.8978 9.81237 9.1473 10.0052C8.81952 9.22962 8.05366 8.68115 7.16947 8.68115C6.33129 8.68115 5.60372 9.179 5.24902 9.89104C3.62201 9.51174 2.54753 8.79956 2.54753 8.79956C2.42846 8.71716 2.28746 8.67301 2.143 8.67274C1.42805 8.67143 1.15216 9.60988 1.75248 10.001C1.75248 10.001 3.0947 10.8935 5.07546 11.3279C5.18236 11.789 5.43993 12.1896 5.78932 12.487L0.046193 27.9179C0.015791 27.9989 0.000145702 28.0848 2.14329e-06 28.1716C2.14329e-06 28.1716 -0.00769037 29.7903 0.898635 31.4135C1.80497 33.0367 3.72932 34.6694 7.16667 34.6694C10.604 34.6694 12.5284 33.0367 13.4347 31.4135C14.341 29.7903 14.3333 28.1716 14.3333 28.1716C14.3332 28.0848 14.3175 27.9989 14.2871 27.9179L8.54401 12.4884C8.86197 12.2177 9.0991 11.8601 9.22008 11.4492C11.1646 11.2429 12.6702 10.7706 14.0422 10.2746C15.3639 9.7968 16.5934 9.32465 18.0958 9.01674C18.5503 10.4844 19.8982 11.5634 21.5 11.5634C23.1019 11.5634 24.4512 10.4845 24.9056 9.01674C26.4075 9.32476 27.6361 9.79682 28.9578 10.2746C30.3299 10.7706 31.8363 11.2431 33.7813 11.4492C33.9022 11.8599 34.1383 12.2178 34.456 12.4884L28.7129 27.9179C28.6825 27.9989 28.6668 28.0848 28.6667 28.1716C28.6667 28.1716 28.6591 29.7903 29.5653 31.4135C30.4716 33.0367 32.396 34.6694 35.8333 34.6694C39.2707 34.6694 41.195 33.0367 42.1014 31.4135C43.0077 29.7903 43 28.1716 43 28.1716C42.9999 28.0848 42.9843 27.9989 42.9538 27.9179L37.2107 12.4884C37.5609 12.1909 37.8189 11.7897 37.926 11.3279C39.906 10.8934 41.2475 10.001 41.2475 10.001C41.858 9.60409 41.5622 8.64943 40.836 8.67274C40.6987 8.67819 40.5656 8.72125 40.4525 8.79956C40.4525 8.79956 39.3787 9.51166 37.7524 9.89104C37.3978 9.17878 36.6703 8.68115 35.8319 8.68115C34.9478 8.68115 34.1819 9.22962 33.8541 10.0052C32.1031 9.81256 30.7657 9.39369 29.4421 8.91523C28.1152 8.43558 26.7599 7.90998 25.0623 7.5756C24.9556 6.56027 24.4183 5.67736 23.6486 5.08962V2.17911C23.6486 0.991676 22.6787 0.0146484 21.5 0.0146484H21.5ZM21.5 1.45995C21.9094 1.45995 22.2139 1.76666 22.2139 2.17911V4.41985C21.983 4.37237 21.7443 4.34773 21.5 4.34773C21.2537 4.34773 21.0132 4.37233 20.7805 4.42118V2.17911C20.7805 1.76663 21.0906 1.45995 21.5 1.45995ZM21.5 5.79187C22.6959 5.79187 23.6486 6.75157 23.6486 7.95633C23.6486 9.16109 22.6959 10.1195 21.5 10.1195C20.3041 10.1195 19.3528 9.16109 19.3528 7.95633C19.3528 6.75157 20.3041 5.79187 21.5 5.79187ZM7.16947 10.1195C7.57376 10.1195 7.88333 10.437 7.88333 10.8443C7.88333 11.2516 7.57376 11.5634 7.16947 11.5634C6.76517 11.5634 6.4486 11.2516 6.4486 10.8443C6.4486 10.437 6.76517 10.1195 7.16947 10.1195ZM35.8319 10.1195C36.2362 10.1195 36.5514 10.437 36.5514 10.8443C36.5514 11.2516 36.2362 11.5634 35.8319 11.5634C35.4276 11.5634 35.1181 11.2516 35.1181 10.8443C35.1181 10.437 35.4276 10.1195 35.8319 10.1195ZM20.0555 12.9975C19.6596 13.0057 19.345 13.3348 19.3528 13.7336V36.112H14.3319C13.1532 36.112 12.1847 37.0933 12.1847 38.2808V38.9999C11.006 38.9999 10.0305 39.9826 10.0305 41.17V42.6083C10.029 43.0093 10.352 43.3347 10.75 43.3332H32.25C32.6458 43.3315 32.9654 43.0071 32.9639 42.6083V41.17C32.9639 39.9826 31.9954 38.9999 30.8167 38.9999V38.2808C30.8167 37.0933 29.8482 36.112 28.6695 36.112H23.6486V13.7336C23.6565 13.326 23.3281 12.9927 22.9235 12.9975C22.525 13.0002 22.2061 13.3321 22.2139 13.7336V36.112H20.7805V13.7336C20.7884 13.326 20.4601 12.9927 20.0555 12.9975ZM7.12887 13.0057C7.14269 13.0059 7.15558 13.0111 7.16947 13.0111C7.18195 13.0111 7.19341 13.0084 7.20586 13.0057L12.5837 27.4522H1.74968L7.12887 13.0057ZM35.7955 13.0057C35.808 13.0059 35.8194 13.0111 35.8319 13.0111C35.8452 13.0111 35.8576 13.0084 35.8711 13.0057L41.2503 27.4522H30.4163L35.7955 13.0057ZM1.51732 28.8976H12.816C12.7392 29.3604 12.5774 30.006 12.1861 30.7067C11.48 31.9714 10.1793 33.2266 7.16667 33.2266C4.15401 33.2266 2.85336 31.9714 2.1472 30.7067C1.75595 30.006 1.59411 29.3604 1.51732 28.8976ZM30.184 28.8976H41.4827C41.4059 29.3604 41.244 30.006 40.8528 30.7067C40.1466 31.9714 38.846 33.2266 35.8333 33.2266C32.8207 33.2266 31.52 31.9714 30.8139 30.7067C30.4226 30.006 30.2608 29.3604 30.184 28.8976ZM14.3319 37.557C19.1595 37.5878 23.8255 37.557 28.6695 37.557C29.0789 37.557 29.3833 37.8694 29.3833 38.2818V39.001H25.8014C24.8449 39.001 24.8449 40.4464 25.8014 40.4464H30.8167C31.2261 40.4464 31.5305 40.7587 31.5305 41.1711V41.8903H11.4639V41.1711C11.4639 40.7587 11.7753 40.4464 12.1847 40.4464H22.9347C23.8912 40.4464 23.8912 39.001 22.9347 39.001H13.6181V38.2818C13.6181 37.8694 13.9225 37.557 14.3319 37.557Z" fill="#2293D7"/>
</svg>
