<svg width="47" height="48" viewBox="0 0 47 48" fill="none" xmlns="http://www.w3.org/2000/svg">
    <path d="M24 47.9999H30.4V36.7999H24V47.9999ZM25.6 38.3999H28.8V46.3999H25.6V38.3999Z" fill="#2293D7"/>
    <path d="M32 48H38.4V33.6H32V48ZM33.6 35.2H36.8V46.4H33.6V35.2Z" fill="#2293D7"/>
    <path d="M40 30.4V48H46.4V30.4H40ZM44.8 46.4H41.6V32H44.8V46.4Z" fill="#2293D7"/>
    <path d="M8.79999 1.6H33.6V32H35.2V0H1.6V4H0V5.6H1.6V8.79999H0V10.4H1.6V13.6H0V15.2H1.6V18.4H0V20H1.6V23.2H0V24.8H1.6V28H0V29.6H1.6V32.8H0V34.4H1.6V37.6H0V39.2H1.6V42.4H0V44H1.6V48H22.4V46.4H8.79999V1.6ZM3.2 44H4.8V42.4H3.2V39.2H4.8V37.6H3.2V34.4H4.8V32.8H3.2V29.6H4.8V28H3.2V24.8H4.8V23.2H3.2V20H4.8V18.4H3.2V15.2H4.8V13.6H3.2V10.4H4.8V8.79999H3.2V5.6H4.8V4H3.2V1.6H7.19999V46.4H3.2V44Z" fill="#2293D7"/>
    <path d="M18.4 6.39995H15.2V3.19995H13.6V6.39995H10.4V7.99995H13.6V11.1999H15.2V7.99995H18.4V6.39995Z" fill="#2293D7"/>
    <path d="M16.64 13.4401L14.4 15.6801L12.16 13.4401L11.04 14.5601L13.28 16.8001L11.04 19.0401L12.16 20.1601L14.4 17.9201L16.64 20.1601L17.76 19.0401L15.52 16.8001L17.76 14.5601L16.64 13.4401Z" fill="#2293D7"/>
    <path d="M29.6 6.40002H21.6V8.00002H29.6V6.40002Z" fill="#2293D7"/>
    <path d="M29.6 14.4H21.6V16H29.6V14.4Z" fill="#2293D7"/>
    <path d="M29.6 17.6H21.6V19.2H29.6V17.6Z" fill="#2293D7"/>
</svg>
