<svg width="51" height="47" viewBox="0 0 51 47" fill="none" xmlns="http://www.w3.org/2000/svg">
    <path d="M47 0H3.13333C1.4053 0 0 1.4053 0 3.13333V34.4667C0 36.1947 1.4053 37.6 3.13333 37.6H20.3667V42.3H18.0167C16.2886 42.3 14.8833 43.7053 14.8833 45.4333V46.2167C14.8833 46.6499 15.2335 47 15.6667 47H34.4667C34.8999 47 35.25 46.6499 35.25 46.2167V45.4333C35.25 43.7053 33.8447 42.3 32.1167 42.3H29.7667V37.6H47C48.728 37.6 50.1333 36.1947 50.1333 34.4667V3.13333C50.1333 1.4053 48.728 0 47 0ZM3.13333 1.56667H47C47.864 1.56667 48.5667 2.26932 48.5667 3.13333V31.3333H1.56667V3.13333C1.56667 2.26932 2.26932 1.56667 3.13333 1.56667ZM33.6833 45.4333H16.45C16.45 44.5693 17.1527 43.8667 18.0167 43.8667H32.1167C32.9807 43.8667 33.6833 44.5693 33.6833 45.4333ZM28.2 42.3H21.9333V37.6H28.2V42.3ZM47 36.0333H3.13333C2.26932 36.0333 1.56667 35.3307 1.56667 34.4667V32.9H48.5667V34.4667C48.5667 35.3307 47.864 36.0333 47 36.0333Z" fill="#2293D7"/>
    <path d="M6.26673 26.6333H43.8667C44.2999 26.6333 44.6501 26.2831 44.6501 25.8499C44.6501 25.4168 44.2999 25.0666 43.8667 25.0666H41.5167V11.7499C41.5167 11.3168 41.1666 10.9666 40.7334 10.9666H36.8167C36.3835 10.9666 36.0334 11.3168 36.0334 11.7499V14.8833H32.9001C32.4669 14.8833 32.1167 15.2334 32.1167 15.6666V25.0666H29.7667V6.26661C29.7667 5.83343 29.4166 5.48328 28.9834 5.48328H25.0667C24.6335 5.48328 24.2834 5.83343 24.2834 6.26661V10.1833H21.1501C20.7169 10.1833 20.3667 10.5334 20.3667 10.9666V25.0666H18.0167V17.2333C18.0167 16.8001 17.6666 16.4499 17.2334 16.4499H13.3167C12.8835 16.4499 12.5334 16.8001 12.5334 17.2333V20.3666H9.40007C8.96688 20.3666 8.61673 20.7168 8.61673 21.1499V25.0666H7.05007V6.26661C7.05007 5.83343 6.69992 5.48328 6.26673 5.48328C5.83355 5.48328 5.4834 5.83343 5.4834 6.26661V25.8499C5.4834 26.2831 5.83355 26.6333 6.26673 26.6333ZM37.6001 12.5333H39.9501V25.0666H37.6001V12.5333ZM33.6834 16.4499H36.0334V25.0666H33.6834V16.4499ZM25.8501 7.04994H28.2001V25.0666H25.8501V7.04994ZM21.9334 11.7499H24.2834V25.0666H21.9334V11.7499ZM14.1001 18.0166H16.4501V25.0666H14.1001V18.0166ZM10.1834 21.9333H12.5334V25.0666H10.1834V21.9333Z" fill="#2293D7"/>
    <path d="M14.1 28.2H12.5333C12.1002 28.2 11.75 28.5501 11.75 28.9833C11.75 29.4165 12.1002 29.7666 12.5333 29.7666H14.1C14.5332 29.7666 14.8833 29.4165 14.8833 28.9833C14.8833 28.5501 14.5332 28.2 14.1 28.2Z" fill="#2293D7"/>
    <path d="M25.85 28.2H24.2833C23.8502 28.2 23.5 28.5501 23.5 28.9833C23.5 29.4165 23.8502 29.7666 24.2833 29.7666H25.85C26.2832 29.7666 26.6333 29.4165 26.6333 28.9833C26.6333 28.5501 26.2832 28.2 25.85 28.2Z" fill="#2293D7"/>
    <path d="M37.6 28.2H36.0333C35.6002 28.2 35.25 28.5501 35.25 28.9833C35.25 29.4165 35.6002 29.7666 36.0333 29.7666H37.6C38.0332 29.7666 38.3833 29.4165 38.3833 28.9833C38.3833 28.5501 38.0332 28.2 37.6 28.2Z" fill="#2293D7"/>
</svg>
