<svg width="45" height="56" viewBox="0 0 45 56" fill="none" xmlns="http://www.w3.org/2000/svg">
    <path d="M3.12996 55.9927H29.6038C31.3362 55.9927 32.7451 54.5881 32.7451 52.8622V49.8754H35.7319C37.4583 49.8754 38.8624 48.4665 38.8624 46.7347V43.7446H41.8567C43.5853 43.7446 44.9915 42.3384 44.9915 40.6104V11.7809C45.0412 11.3361 44.868 11.0093 44.5767 10.7882C31.6548 -2.13023 35.862 2.07584 34.9973 1.21141C34.7979 1.01203 34.4625 0.892822 34.2154 0.892822H15.385C13.657 0.892822 12.2508 2.29904 12.2508 4.02763V7.02358H9.25803C7.53213 7.02358 6.12807 8.42765 6.12807 10.1535V13.1409H3.12996C1.40406 13.1409 0 14.5498 0 16.2816V52.8622C-1.10215e-05 54.5881 1.40406 55.9927 3.12996 55.9927ZM41.2303 10.5615H36.3605C35.7868 10.5615 35.3202 10.0949 35.3202 9.5212V4.65674C35.4315 4.76794 41.6227 10.9535 41.2303 10.5615ZM15.385 3.09714H33.1159V9.5212C33.1159 11.3101 34.5716 12.7658 36.3605 12.7658H42.7872V40.6104C42.7872 41.1232 42.3696 41.5403 41.8567 41.5403H15.385C14.8721 41.5403 14.4551 41.1232 14.4551 40.6104C14.4551 31.2718 14.4551 11.541 14.4551 4.02763C14.4551 3.51476 14.8721 3.09714 15.385 3.09714ZM8.33238 10.1535C8.33238 9.65198 8.75646 9.22791 9.25801 9.22791H12.2507V40.6104C12.2507 42.3384 13.657 43.7446 15.385 43.7446H36.6581V46.7347C36.6581 47.2508 36.2426 47.6711 35.7319 47.6711H9.25801C8.74784 47.6711 8.33238 47.2508 8.33238 46.7347V10.1535ZM2.20431 16.2816C2.20431 15.7655 2.61977 15.3452 3.12994 15.3452H6.12805V46.7347C6.12805 48.4665 7.53212 49.8754 9.258 49.8754H30.5408V52.8622C30.5408 53.3729 30.1204 53.7884 29.6038 53.7884H3.12996C2.62838 53.7884 2.20432 53.3643 2.20432 52.8622V16.2816H2.20431Z" fill="#2293D7"/>
    <path d="M17.5829 18.0387H39.6632C40.2718 18.0387 40.7653 17.5452 40.7653 16.9365C40.7653 16.3278 40.2718 15.8344 39.6632 15.8344H17.5829C16.9742 15.8344 16.4807 16.3278 16.4807 16.9365C16.4807 17.5452 16.9742 18.0387 17.5829 18.0387Z" fill="#2293D7"/>
    <path d="M17.5829 24.7512H39.6632C40.2718 24.7512 40.7653 24.2577 40.7653 23.649C40.7653 23.0404 40.2718 22.5469 39.6632 22.5469H17.5829C16.9742 22.5469 16.4807 23.0404 16.4807 23.649C16.4807 24.2577 16.9742 24.7512 17.5829 24.7512Z" fill="#2293D7"/>
    <path d="M17.5829 31.4643H39.6632C40.2718 31.4643 40.7653 30.9708 40.7653 30.3622C40.7653 29.7535 40.2718 29.26 39.6632 29.26H17.5829C16.9742 29.26 16.4807 29.7535 16.4807 30.3622C16.4807 30.9708 16.9742 31.4643 17.5829 31.4643Z" fill="#2293D7"/>
    <path d="M17.5829 38.1767H28.6416C29.2503 38.1767 29.7438 37.6832 29.7438 37.0746C29.7438 36.4659 29.2503 35.9724 28.6416 35.9724H17.5829C16.9742 35.9724 16.4807 36.4659 16.4807 37.0746C16.4807 37.6832 16.9742 38.1767 17.5829 38.1767Z" fill="#2293D7"/>
    <path d="M21.8236 13.5925C24.2093 13.5925 26.1504 11.6513 26.1504 9.26562C26.1504 6.87995 24.2093 4.93933 21.8236 4.93933C19.4379 4.93933 17.4973 6.87995 17.4973 9.26562C17.4973 11.6513 19.4379 13.5925 21.8236 13.5925ZM21.8236 6.59257C23.2976 6.59257 24.4972 7.7916 24.4972 9.26562C24.4972 10.7397 23.2976 11.9392 21.8236 11.9392C20.3496 11.9392 19.1506 10.7397 19.1506 9.26562C19.1506 7.7916 20.3496 6.59257 21.8236 6.59257Z" fill="#2293D7"/>
</svg>
