<svg xmlns="http://www.w3.org/2000/svg" display="none">

    <symbol id="instagram" viewBox="0 0 23 23">
        <path d="M6.70646 0C3.00825 0 0 3.01104 0 6.71021V16.2935C0 19.9917 3.01104 23 6.71021 23H16.2935C19.9917 23 23 19.989 23 16.2898V6.70646C23 3.00825 19.989 0 16.2898 0H6.70646ZM18.2083 3.83333C18.7373 3.83333 19.1667 4.26267 19.1667 4.79167C19.1667 5.32067 18.7373 5.75 18.2083 5.75C17.6793 5.75 17.25 5.32067 17.25 4.79167C17.25 4.26267 17.6793 3.83333 18.2083 3.83333ZM11.5 5.75C14.6711 5.75 17.25 8.32887 17.25 11.5C17.25 14.6711 14.6711 17.25 11.5 17.25C8.32887 17.25 5.75 14.6711 5.75 11.5C5.75 8.32887 8.32887 5.75 11.5 5.75ZM11.5 7.66667C10.4833 7.66667 9.50831 8.07053 8.78942 8.78942C8.07053 9.50831 7.66667 10.4833 7.66667 11.5C7.66667 12.5167 8.07053 13.4917 8.78942 14.2106C9.50831 14.9295 10.4833 15.3333 11.5 15.3333C12.5167 15.3333 13.4917 14.9295 14.2106 14.2106C14.9295 13.4917 15.3333 12.5167 15.3333 11.5C15.3333 10.4833 14.9295 9.50831 14.2106 8.78942C13.4917 8.07053 12.5167 7.66667 11.5 7.66667Z"/>
    </symbol>

    <symbol id="facebook" viewBox="0 0 23 22">
        <path d="M11.5 0C5.14913 0 0 4.92525 0 11C0 17.0748 5.14913 22 11.5 22C17.8509 22 23 17.0748 23 11C23 4.92525 17.8509 0 11.5 0ZM15.5068 7.33333H13.8498C12.8187 7.33333 12.4583 7.854 12.4583 8.90817V10.0833H15.4809L15.0707 12.8333H12.4583V20.1208C12.143 20.1502 11.8239 20.1667 11.5 20.1667C10.8435 20.1667 10.2024 20.1025 9.58333 19.9824V12.8333H6.70833V10.0833H9.58333V8.60658C9.58333 5.81075 11.0074 4.58333 13.4368 4.58333C14.6002 4.58333 15.2155 4.66583 15.5068 4.70342V7.33333Z"/>
    </symbol>

    <symbol id="skype" viewBox="0 0 23 23">
        <path d="M22.0128 12.8968C22.0738 12.4386 22.1154 11.9742 22.1154 11.5C22.1154 5.63765 17.3623 0.884615 11.5 0.884615C11.0258 0.884615 10.5614 0.926192 10.1032 0.987231C9.09296 0.365346 7.90758 0 6.63462 0C2.97054 0 0 2.97054 0 6.63462C0 7.90758 0.365346 9.09296 0.987231 10.1032C0.926192 10.5614 0.884615 11.0258 0.884615 11.5C0.884615 17.3623 5.63765 22.1154 11.5 22.1154C11.9742 22.1154 12.4386 22.0738 12.8968 22.0128C13.907 22.6347 15.0924 23 16.3654 23C20.0295 23 23 20.0295 23 16.3654C23 15.0924 22.6347 13.907 22.0128 12.8968ZM11.6318 17.6923C8.18535 17.6923 6.20646 15.8859 6.20646 14.1132C6.20646 13.2091 7.153 12.9198 7.53162 12.9198C8.4065 12.9198 8.69754 13.6337 8.85677 13.961C9.74581 15.7886 10.6003 15.548 11.4425 15.6276C12.1865 15.6975 13.9327 15.3693 13.9327 14.0937C13.9327 13.9716 14.1247 13.1418 12.6173 12.7305C11.6539 12.4669 9.95546 12.144 8.55777 11.6062C7.24323 11.1002 6.47185 10.0581 6.47185 8.71523C6.47185 8.04381 6.81596 5.30769 11.4708 5.30769C14.5776 5.30769 16.2336 6.89912 16.2336 8.29946C16.2336 8.62146 16.1106 8.90542 15.8638 9.16108C15.617 9.41673 14.9217 9.79092 14.16 9.3035C13.9681 9.18054 13.8097 8.92488 13.6204 8.59315C13.3922 8.1765 13.0189 7.3715 11.3001 7.3715C9.63258 7.3715 9.16992 8.16677 9.16992 8.4985C9.16992 9.61312 11.2974 9.84754 11.8689 9.99527C13.9548 10.5331 16.7927 11.0276 16.7927 13.8398C16.7927 17.0687 13.4329 17.6923 11.6318 17.6923Z"/>
    </symbol>

    <symbol id="phone" viewBox="0 0 17 17">
        <path d="M9.73255 11.4338L11.0983 10.6453C11.1582 10.6107 11.2243 10.5882 11.2929 10.5792C11.3615 10.5702 11.4312 10.5747 11.4981 10.5926C11.5649 10.6105 11.6275 10.6414 11.6824 10.6836C11.7373 10.7257 11.7834 10.7782 11.818 10.8381L13.922 14.4825C13.9919 14.6035 14.0108 14.7473 13.9747 14.8823C13.9385 15.0173 13.8502 15.1323 13.7292 15.2022L12.3627 15.9911C10.3493 17.1536 6.83253 14.8316 4.50767 10.8048C2.18282 6.77809 1.93033 2.57147 3.94371 1.40902L5.31021 0.620068C5.43122 0.550206 5.57503 0.531274 5.70999 0.567438C5.84496 0.603603 5.96003 0.6919 6.0299 0.812907L8.13399 4.4573C8.16858 4.51722 8.19104 4.58336 8.20007 4.65196C8.2091 4.72055 8.20453 4.79025 8.18663 4.85708C8.16872 4.92391 8.13783 4.98656 8.09571 5.04145C8.05359 5.09634 8.00107 5.14239 7.94115 5.17698L6.57543 5.96548C6.45564 6.03464 6.35065 6.12672 6.26645 6.23645C6.18224 6.34619 6.12048 6.47144 6.08468 6.60504C6.04888 6.73865 6.03975 6.878 6.0578 7.01513C6.07585 7.15227 6.12074 7.28451 6.1899 7.4043L8.29374 11.0483C8.43342 11.2902 8.66348 11.4667 8.93331 11.539C9.20314 11.6113 9.49063 11.5735 9.73255 11.4338Z"/>
    </symbol>

    <symbol id="search" viewBox="0 0 18 18">
        <path fill-rule="evenodd" clip-rule="evenodd"
              d="M12.3977 7.02538C12.3977 9.99249 9.99241 12.3977 7.02538 12.3977C4.05832 12.3977 1.65303 9.99249 1.65303 7.02538C1.65303 4.05832 4.05832 1.65303 7.02538 1.65303C9.99241 1.65303 12.3977 4.05832 12.3977 7.02538ZM12.5432 11.3743C13.4873 10.1781 14.0508 8.66759 14.0508 7.02538C14.0508 3.14537 10.9054 0 7.02538 0C3.14539 0 0 3.14537 0 7.02538C0 10.9054 3.14539 14.0508 7.02538 14.0508C8.66759 14.0508 10.1782 13.4873 11.3743 12.5432L16.5891 17.7579C16.9118 18.0807 17.4352 18.0807 17.7579 17.7579C18.0807 17.4352 18.0807 16.9118 17.7579 16.5891L12.5432 11.3743Z"/>
    </symbol>

    <symbol id="star" viewBox="0 0 20 20">
        <path d="M4.35068 20C4.22541 19.9996 4.10172 19.9706 3.98823 19.9151C3.87473 19.8596 3.77415 19.7789 3.69349 19.6785C3.61283 19.5782 3.55402 19.4607 3.52116 19.3341C3.48829 19.2076 3.48216 19.0751 3.50319 18.9458L4.50548 12.8288L0.259915 8.49671C0.144914 8.37937 0.0635695 8.23069 0.0250816 8.06748C-0.0134063 7.90427 -0.0075024 7.73305 0.0421253 7.57317C0.091753 7.41329 0.183125 7.27113 0.305908 7.16277C0.428692 7.05442 0.577989 6.98418 0.736917 6.96001L6.60396 6.06754L9.22815 0.502171C9.29923 0.351432 9.40918 0.224516 9.54558 0.135773C9.68197 0.0470301 9.83936 0 9.99995 0C10.1605 0 10.3179 0.0470301 10.4543 0.135773C10.5907 0.224516 10.7007 0.351432 10.7718 0.502171L13.3959 6.06754L19.2634 6.96001C19.4223 6.98423 19.5715 7.05451 19.6943 7.16289C19.817 7.27128 19.9083 7.41345 19.9579 7.57333C20.0075 7.73321 20.0134 7.90442 19.9749 8.06761C19.9364 8.23079 19.855 8.37945 19.74 8.49676L15.4943 12.8288L16.4967 18.9458C16.5239 19.1115 16.5062 19.2819 16.4457 19.4376C16.3852 19.5933 16.2843 19.7282 16.1543 19.827C16.0244 19.9258 15.8707 19.9846 15.7105 19.9968C15.5503 20.0089 15.3901 19.9738 15.2479 19.8956L9.99995 17.0075L4.752 19.8956C4.62832 19.964 4.49057 19.9998 4.35068 20Z"/>
    </symbol>

    <symbol id="star0" viewBox="0 0 20 20">
        <path d="M4.08318 19.3653L3.69349 19.6785L4.08318 19.3653C4.04756 19.321 4.02046 19.2676 4.0051 19.2085C3.98976 19.1494 3.98682 19.0871 3.99666 19.0264C3.99667 19.0263 3.99669 19.0262 3.99671 19.0261L4.9989 12.9097L5.03985 12.6598L4.86258 12.4789L0.617019 8.14674L0.617009 8.14673C0.567204 8.09591 0.529745 8.0291 0.511733 7.95272L0.0250816 8.06748L0.511733 7.95272C0.493703 7.87626 0.496538 7.79585 0.519649 7.72139C0.54273 7.64704 0.584315 7.58394 0.63675 7.53767L0.306289 7.16321L0.636751 7.53766C0.688973 7.49158 0.74995 7.46378 0.812096 7.45433L0.812109 7.45432L6.67915 6.56186L6.94257 6.52179L7.05621 6.28079L9.68038 0.715433C9.68039 0.715427 9.68039 0.715421 9.68039 0.715415C9.7129 0.64649 9.76163 0.591718 9.81826 0.554872C9.87465 0.518183 9.93752 0.5 9.99995 0.5C10.0624 0.5 10.1253 0.518183 10.1816 0.554871L10.4533 0.137425L10.1816 0.554872C10.2383 0.591719 10.287 0.646492 10.3195 0.715415C10.3195 0.715421 10.3195 0.715427 10.3195 0.715433L12.9437 6.28079L13.0573 6.52179L13.3208 6.56186L19.188 7.4543C19.2502 7.46377 19.3111 7.49159 19.3633 7.53769C19.4158 7.58398 19.4573 7.64709 19.4804 7.72145C19.5035 7.7959 19.5063 7.87631 19.4883 7.95275C19.4702 8.02912 19.4328 8.09593 19.3829 8.14673L19.3829 8.14679L15.1372 12.4788L14.9599 12.6597L15.0009 12.9097L16.0033 19.0267L16.0033 19.0267C16.0161 19.1047 16.0076 19.1845 15.9796 19.2565C15.9517 19.3284 15.9064 19.3874 15.8517 19.4291C15.7972 19.4705 15.7351 19.4935 15.6728 19.4982C15.6105 19.5029 15.547 19.4895 15.489 19.4576L15.489 19.4575L10.241 16.5695L9.99995 16.4368L9.75888 16.5695L4.51093 19.4575L4.50996 19.4581C4.45974 19.4859 4.40536 19.4998 4.35123 19.5C4.30258 19.4997 4.25377 19.4884 4.20792 19.466L3.98823 19.9151L4.20792 19.466C4.16165 19.4433 4.11874 19.4095 4.08318 19.3653Z"/>
    </symbol>

    <symbol id="arrow-bottom" viewBox="0 0 10 6">
        <path d="M4.67386 5.32849C4.50633 5.32849 4.33882 5.26452 4.21109 5.13686L0.191761 1.11749C-0.0639205 0.861807 -0.0639205 0.447262 0.191761 0.191684C0.44734 -0.0638946 0.861801 -0.0638946 1.1175 0.191684L4.67386 3.74825L8.23024 0.191808C8.48592 -0.0637704 8.90034 -0.0637704 9.15589 0.191808C9.4117 0.447386 9.4117 0.861931 9.15589 1.11761L5.13663 5.13698C5.00884 5.26467 4.84133 5.32849 4.67386 5.32849Z"/>
    </symbol>

</svg>